<?xml version="1.0" encoding="utf-8" standalone="no"?>
<!DOCTYPE svg PUBLIC "-//W3C//DTD SVG 1.1//EN"
  "http://www.w3.org/Graphics/SVG/1.1/DTD/svg11.dtd">
<svg xmlns:xlink="http://www.w3.org/1999/xlink" width="349.2pt" height="264.96pt" viewBox="0 0 349.2 264.96" xmlns="http://www.w3.org/2000/svg" version="1.1">
 <metadata>
  <rdf:RDF xmlns:dc="http://purl.org/dc/elements/1.1/" xmlns:cc="http://creativecommons.org/ns#" xmlns:rdf="http://www.w3.org/1999/02/22-rdf-syntax-ns#">
   <cc:Work>
    <dc:type rdf:resource="http://purl.org/dc/dcmitype/StillImage"/>
    <dc:date>2024-02-11T11:21:16.882273</dc:date>
    <dc:format>image/svg+xml</dc:format>
    <dc:creator>
     <cc:Agent>
      <dc:title>Matplotlib v3.7.2, https://matplotlib.org/</dc:title>
     </cc:Agent>
    </dc:creator>
   </cc:Work>
  </rdf:RDF>
 </metadata>
 <defs>
  <style type="text/css">*{stroke-linejoin: round; stroke-linecap: butt}</style>
 </defs>
 <g id="figure_1">
  <g id="patch_1">
   <path d="M 0 264.96 
L 349.2 264.96 
L 349.2 0 
L 0 0 
z
" style="fill: #ffffff"/>
  </g>
  <g id="axes_1">
   <g id="line2d_1">
    <path d="M 7.2 41.64685 
L 9.181065 41.616722 
L 11.16213 41.714117 
L 13.143195 42.012699 
L 15.12426 43.269006 
L 17.105325 46.30469 
L 19.086391 50.104538 
L 21.067456 54.810706 
L 23.048521 58.499385 
L 25.029586 59.737614 
L 27.010651 56.249384 
L 28.991716 48.177221 
L 30.972781 44.03323 
L 32.953846 50.532181 
" clip-path="url(#pe170bfd9fe)" style="fill: none; stroke: #1f77b4; stroke-width: 1.5; stroke-linecap: square"/>
   </g>
   <g id="line2d_2">
    <defs>
     <path id="ma94e9ed1dc" d="M -3 3 
L 3 -3 
M -3 -3 
L 3 3 
" style="stroke: #ff7f0e"/>
    </defs>
    <g clip-path="url(#pe170bfd9fe)">
     <use xlink:href="#ma94e9ed1dc" x="25.029586" y="59.737614" style="fill: #ff7f0e; stroke: #ff7f0e"/>
    </g>
   </g>
   <g id="line2d_3">
    <defs>
     <path id="mb54fff5fd8" d="M 0 1.5 
C 0.397805 1.5 0.77937 1.341951 1.06066 1.06066 
C 1.341951 0.77937 1.5 0.397805 1.5 0 
C 1.5 -0.397805 1.341951 -0.77937 1.06066 -1.06066 
C 0.77937 -1.341951 0.397805 -1.5 0 -1.5 
C -0.397805 -1.5 -0.77937 -1.341951 -1.06066 -1.06066 
C -1.341951 -0.77937 -1.5 -0.397805 -1.5 0 
C -1.5 0.397805 -1.341951 0.77937 -1.06066 1.06066 
C -0.77937 1.341951 -0.397805 1.5 0 1.5 
z
" style="stroke: #2ca02c"/>
    </defs>
    <g clip-path="url(#pe170bfd9fe)">
     <use xlink:href="#mb54fff5fd8" x="32.953846" y="50.532181" style="fill: #2ca02c; stroke: #2ca02c"/>
    </g>
   </g>
  </g>
  <g id="axes_2">
   <g id="line2d_4">
    <path d="M 32.953846 37.816198 
L 34.934911 37.741983 
L 36.915976 37.705706 
L 38.897041 37.636594 
L 40.878107 38.099347 
L 42.859172 38.582574 
L 44.840237 39.410623 
L 46.821302 40.210141 
L 48.802367 40.874694 
L 50.783432 41.893906 
L 52.764497 42.25459 
L 54.745562 41.846622 
L 56.726627 41.382394 
L 58.707692 42.270269 
" clip-path="url(#p226b5e12e9)" style="fill: none; stroke: #1f77b4; stroke-width: 1.5; stroke-linecap: square"/>
   </g>
   <g id="line2d_5">
    <g clip-path="url(#p226b5e12e9)">
     <use xlink:href="#ma94e9ed1dc" x="52.764497" y="42.25459" style="fill: #ff7f0e; stroke: #ff7f0e"/>
    </g>
   </g>
   <g id="line2d_6">
    <g clip-path="url(#p226b5e12e9)">
     <use xlink:href="#mb54fff5fd8" x="58.707692" y="42.270269" style="fill: #2ca02c; stroke: #2ca02c"/>
    </g>
   </g>
  </g>
  <g id="axes_3">
   <g id="line2d_7">
    <path d="M 58.707692 36.583134 
L 60.688757 36.40396 
L 62.669822 36.499573 
L 64.650888 36.630725 
L 66.631953 36.437778 
L 68.613018 36.642715 
L 70.594083 36.776204 
L 72.575148 37.00512 
L 74.556213 37.610646 
L 76.537278 38.576426 
L 78.518343 39.574732 
L 80.499408 40.360723 
L 82.480473 40.433032 
L 84.461538 41.534821 
" clip-path="url(#pcf33c1f7c4)" style="fill: none; stroke: #1f77b4; stroke-width: 1.5; stroke-linecap: square"/>
   </g>
   <g id="line2d_8">
    <g clip-path="url(#pcf33c1f7c4)">
     <use xlink:href="#ma94e9ed1dc" x="84.461538" y="41.534821" style="fill: #ff7f0e; stroke: #ff7f0e"/>
    </g>
   </g>
   <g id="line2d_9"/>
  </g>
  <g id="axes_4">
   <g id="line2d_10">
    <path d="M 84.461538 36.509595 
L 86.442604 36.537449 
L 88.423669 36.401808 
L 90.404734 36.592664 
L 92.385799 36.548701 
L 94.366864 36.594447 
L 96.347929 36.655258 
L 98.328994 37.279538 
L 100.310059 37.551373 
L 102.291124 38.186166 
L 104.272189 39.302651 
L 106.253254 40.464021 
L 108.23432 40.524033 
L 110.215385 41.361611 
" clip-path="url(#pf633aaa9cc)" style="fill: none; stroke: #1f77b4; stroke-width: 1.5; stroke-linecap: square"/>
   </g>
   <g id="line2d_11">
    <g clip-path="url(#pf633aaa9cc)">
     <use xlink:href="#ma94e9ed1dc" x="110.215385" y="41.361611" style="fill: #ff7f0e; stroke: #ff7f0e"/>
    </g>
   </g>
   <g id="line2d_12"/>
  </g>
  <g id="axes_5">
   <g id="line2d_13">
    <path d="M 110.215385 37.037893 
L 112.19645 36.762615 
L 114.177515 36.931459 
L 116.15858 36.797048 
L 118.139645 36.830312 
L 120.12071 36.960542 
L 122.101775 37.068083 
L 124.08284 37.221371 
L 126.063905 37.795046 
L 128.04497 38.183891 
L 130.026036 39.679936 
L 132.007101 40.318543 
L 133.988166 40.788182 
L 135.969231 41.092912 
" clip-path="url(#p7bb59ef286)" style="fill: none; stroke: #1f77b4; stroke-width: 1.5; stroke-linecap: square"/>
   </g>
  </g>
  <g id="axes_6">
   <g id="line2d_14">
    <path d="M 135.969231 36.275267 
L 137.950296 36.221835 
L 139.931361 36.562105 
L 141.912426 36.38576 
L 143.893491 36.425112 
L 145.874556 36.636628 
L 147.855621 36.717114 
L 149.836686 36.852817 
L 151.817751 37.113092 
L 153.798817 37.613413 
L 155.779882 38.838792 
L 157.760947 40.022789 
L 159.742012 40.328135 
L 161.723077 40.912447 
" clip-path="url(#p370dfc376c)" style="fill: none; stroke: #1f77b4; stroke-width: 1.5; stroke-linecap: square"/>
   </g>
  </g>
  <g id="axes_7">
   <g id="line2d_15">
    <path d="M 161.723077 36.474793 
L 163.704142 36.304597 
L 165.685207 36.267581 
L 167.666272 36.235362 
L 169.647337 36.264876 
L 171.628402 36.253808 
L 173.609467 36.730457 
L 175.590533 36.86579 
L 177.571598 37.067899 
L 179.552663 37.734727 
L 181.533728 38.567818 
L 183.514793 39.763375 
L 185.495858 40.145825 
L 187.476923 40.52434 
" clip-path="url(#p218cf7a10c)" style="fill: none; stroke: #1f77b4; stroke-width: 1.5; stroke-linecap: square"/>
   </g>
  </g>
  <g id="axes_8">
   <g id="line2d_16">
    <path d="M 187.476923 36.562904 
L 189.457988 36.556879 
L 191.439053 36.630602 
L 193.420118 36.671429 
L 195.401183 36.494162 
L 197.382249 36.861117 
L 199.363314 36.749395 
L 201.344379 37.007826 
L 203.325444 37.42311 
L 205.306509 37.802302 
L 207.287574 38.410164 
L 209.268639 39.67182 
L 211.249704 40.461562 
L 213.230769 40.670803 
" clip-path="url(#pd8750c777b)" style="fill: none; stroke: #1f77b4; stroke-width: 1.5; stroke-linecap: square"/>
   </g>
  </g>
  <g id="axes_9">
   <g id="line2d_17">
    <path d="M 213.230769 37.378655 
L 215.211834 37.41647 
L 217.192899 37.134489 
L 219.173964 37.238218 
L 221.15503 37.353568 
L 223.136095 37.321841 
L 225.11716 37.513128 
L 227.098225 37.624481 
L 229.07929 37.976741 
L 231.060355 38.569109 
L 233.04142 38.89204 
L 235.022485 39.964499 
L 237.00355 40.839892 
L 238.984615 41.194858 
" clip-path="url(#p98e6a4d6cb)" style="fill: none; stroke: #1f77b4; stroke-width: 1.5; stroke-linecap: square"/>
   </g>
  </g>
  <g id="axes_10">
   <g id="line2d_18">
    <path d="M 238.984615 36.858473 
L 240.96568 36.771223 
L 242.946746 36.611172 
L 244.927811 36.652799 
L 246.908876 36.847283 
L 248.889941 36.962079 
L 250.871006 36.732302 
L 252.852071 36.932811 
L 254.833136 37.562379 
L 256.814201 37.860346 
L 258.795266 38.378806 
L 260.776331 39.381662 
L 262.757396 40.221762 
L 264.738462 40.710585 
" clip-path="url(#pee5bb2c3cb)" style="fill: none; stroke: #1f77b4; stroke-width: 1.5; stroke-linecap: square"/>
   </g>
  </g>
  <g id="axes_11">
   <g id="line2d_19">
    <path d="M 264.738462 36.382194 
L 266.719527 36.27207 
L 268.700592 36.435441 
L 270.681657 36.516666 
L 272.662722 36.368236 
L 274.643787 36.273177 
L 276.624852 36.389818 
L 278.605917 36.803442 
L 280.586982 36.846176 
L 282.568047 37.201941 
L 284.549112 37.641021 
L 286.530178 38.5514 
L 288.511243 39.692664 
L 290.492308 40.424915 
" clip-path="url(#p9eaf56cb5a)" style="fill: none; stroke: #1f77b4; stroke-width: 1.5; stroke-linecap: square"/>
   </g>
  </g>
  <g id="axes_12">
   <g id="line2d_20">
    <path d="M 290.492308 36.483709 
L 292.473373 36.370019 
L 294.454438 36.507382 
L 296.435503 36.432429 
L 298.416568 36.324949 
L 300.397633 36.355201 
L 302.378698 36.490473 
L 304.359763 36.743984 
L 306.340828 36.845746 
L 308.321893 36.951442 
L 310.302959 37.283596 
L 312.284024 38.154747 
L 314.265089 39.179492 
L 316.246154 40.196736 
" clip-path="url(#pb9618d0a9e)" style="fill: none; stroke: #1f77b4; stroke-width: 1.5; stroke-linecap: square"/>
   </g>
   <g id="line2d_21">
    <g clip-path="url(#pb9618d0a9e)">
     <use xlink:href="#ma94e9ed1dc" x="316.246154" y="40.196736" style="fill: #ff7f0e; stroke: #ff7f0e"/>
    </g>
   </g>
   <g id="line2d_22"/>
  </g>
  <g id="axes_13">
   <g id="line2d_23">
    <path d="M 316.246154 36.191551 
L 318.227219 36.333217 
L 320.208284 36.354166 
L 322.189349 36.191782 
L 324.170414 36.340509 
L 326.151479 36.570138 
L 328.132544 36.325578 
L 330.113609 36.520023 
L 332.094675 36.717476 
L 334.07574 36.778356 
L 336.056805 37.460184 
L 338.03787 38.002544 
L 340.018935 38.585066 
L 342 39.738537 
" clip-path="url(#pf461df554b)" style="fill: none; stroke: #1f77b4; stroke-width: 1.5; stroke-linecap: square"/>
   </g>
   <g id="line2d_24">
    <g clip-path="url(#pf461df554b)">
     <use xlink:href="#ma94e9ed1dc" x="342" y="39.738537" style="fill: #ff7f0e; stroke: #ff7f0e"/>
    </g>
   </g>
   <g id="line2d_25"/>
  </g>
  <g id="axes_14">
   <g id="line2d_26">
    <path d="M 7.2 62.522727 
L 9.181065 62.515041 
L 11.16213 62.69938 
L 13.143195 62.728094 
L 15.12426 62.949448 
L 17.105325 63.653723 
L 19.086391 64.840487 
L 21.067456 66.706624 
L 23.048521 68.214966 
L 25.029586 69.326347 
L 27.010651 68.770749 
L 28.991716 66.776289 
L 30.972781 66.903321 
L 32.953846 69.505767 
" clip-path="url(#pe7cb0a69d9)" style="fill: none; stroke: #1f77b4; stroke-width: 1.5; stroke-linecap: square"/>
   </g>
   <g id="line2d_27">
    <g clip-path="url(#pe7cb0a69d9)">
     <use xlink:href="#ma94e9ed1dc" x="25.029586" y="69.326347" style="fill: #ff7f0e; stroke: #ff7f0e"/>
    </g>
   </g>
   <g id="line2d_28">
    <g clip-path="url(#pe7cb0a69d9)">
     <use xlink:href="#mb54fff5fd8" x="32.953846" y="69.505767" style="fill: #2ca02c; stroke: #2ca02c"/>
    </g>
   </g>
  </g>
  <g id="axes_15">
   <g id="line2d_29">
    <path d="M 32.953846 61.0233 
L 34.934911 60.909918 
L 36.915976 61.0605 
L 38.897041 61.054105 
L 40.878107 61.186487 
L 42.859172 61.291876 
L 44.840237 61.653237 
L 46.821302 61.997811 
L 48.802367 62.913847 
L 50.783432 63.627037 
L 52.764497 64.780906 
L 54.745562 65.129538 
L 56.726627 65.803623 
L 58.707692 65.795998 
" clip-path="url(#p17f9330a07)" style="fill: none; stroke: #1f77b4; stroke-width: 1.5; stroke-linecap: square"/>
   </g>
  </g>
  <g id="axes_16">
   <g id="line2d_30">
    <path d="M 58.707692 61.105263 
L 60.688757 61.207516 
L 62.669822 61.077163 
L 64.650888 61.233464 
L 66.631953 61.042976 
L 68.613018 61.238198 
L 70.594083 61.566724 
L 72.575148 62.003591 
L 74.556213 62.585875 
L 76.537278 63.552576 
L 78.518343 64.611263 
L 80.499408 65.257924 
L 82.480473 65.672409 
L 84.461538 66.174267 
" clip-path="url(#pe1caf141cf)" style="fill: none; stroke: #1f77b4; stroke-width: 1.5; stroke-linecap: square"/>
   </g>
  </g>
  <g id="axes_17">
   <g id="line2d_31">
    <path d="M 84.461538 61.115224 
L 86.442604 61.115224 
L 88.423669 61.083681 
L 90.404734 60.968884 
L 92.385799 61.18372 
L 94.366864 60.866262 
L 96.347929 61.427579 
L 98.328994 61.83942 
L 100.310059 62.131976 
L 102.291124 63.087672 
L 104.272189 64.189891 
L 106.253254 64.667831 
L 108.23432 65.230254 
L 110.215385 65.864556 
" clip-path="url(#pf116ab7e78)" style="fill: none; stroke: #1f77b4; stroke-width: 1.5; stroke-linecap: square"/>
   </g>
  </g>
  <g id="axes_18">
   <g id="line2d_32">
    <path d="M 110.215385 61.347645 
L 112.19645 60.965072 
L 114.177515 60.928979 
L 116.15858 61.090383 
L 118.139645 61.175604 
L 120.12071 61.217415 
L 122.101775 61.368366 
L 124.08284 61.806094 
L 126.063905 62.242899 
L 128.04497 62.824568 
L 130.026036 64.295526 
L 132.007101 65.059812 
L 133.988166 65.489915 
L 135.969231 65.83492 
" clip-path="url(#p3794763797)" style="fill: none; stroke: #1f77b4; stroke-width: 1.5; stroke-linecap: square"/>
   </g>
  </g>
  <g id="axes_19">
   <g id="line2d_33">
    <path d="M 135.969231 60.884216 
L 137.950296 60.935189 
L 139.931361 61.150333 
L 141.912426 61.111719 
L 143.893491 61.095056 
L 145.874556 61.09358 
L 147.855621 61.183966 
L 149.836686 61.825647 
L 151.817751 62.310166 
L 153.798817 62.652096 
L 155.779882 63.960359 
L 157.760947 64.841778 
L 159.742012 65.392888 
L 161.723077 66.145614 
" clip-path="url(#p1c181bea8a)" style="fill: none; stroke: #1f77b4; stroke-width: 1.5; stroke-linecap: square"/>
   </g>
  </g>
  <g id="axes_20">
   <g id="line2d_34">
    <path d="M 161.723077 61.110305 
L 163.704142 61.131518 
L 165.685207 60.992434 
L 167.666272 61.08448 
L 169.647337 61.158449 
L 171.628402 61.181753 
L 173.609467 61.1341 
L 175.590533 61.607798 
L 177.571598 62.121154 
L 179.552663 62.578373 
L 181.533728 63.592358 
L 183.514793 64.616428 
L 185.495858 65.251836 
L 187.476923 65.547467 
" clip-path="url(#p5c8b7e898e)" style="fill: none; stroke: #1f77b4; stroke-width: 1.5; stroke-linecap: square"/>
   </g>
  </g>
  <g id="axes_21">
   <g id="line2d_35">
    <path d="M 187.476923 61.272078 
L 189.457988 61.151378 
L 191.439053 61.146767 
L 193.420118 61.115285 
L 195.401183 61.153653 
L 197.382249 61.121741 
L 199.363314 61.523007 
L 201.344379 61.599558 
L 203.325444 62.064094 
L 205.306509 62.520268 
L 207.287574 63.431016 
L 209.268639 64.766948 
L 211.249704 65.071986 
L 213.230769 65.553739 
" clip-path="url(#pcdcf86a154)" style="fill: none; stroke: #1f77b4; stroke-width: 1.5; stroke-linecap: square"/>
   </g>
  </g>
  <g id="axes_22">
   <g id="line2d_36">
    <path d="M 213.230769 60.871058 
L 215.211834 60.997845 
L 217.192899 61.147689 
L 219.173964 61.083558 
L 221.15503 61.323542 
L 223.136095 61.269925 
L 225.11716 61.377221 
L 227.098225 61.543605 
L 229.07929 62.022406 
L 231.060355 62.611146 
L 233.04142 63.093205 
L 235.022485 64.43873 
L 237.00355 65.171411 
L 238.984615 65.225643 
" clip-path="url(#p99d913afb4)" style="fill: none; stroke: #1f77b4; stroke-width: 1.5; stroke-linecap: square"/>
   </g>
  </g>
  <g id="axes_23">
   <g id="line2d_37">
    <path d="M 238.984615 61.209053 
L 240.96568 61.072859 
L 242.946746 61.132379 
L 244.927811 61.183782 
L 246.908876 61.125615 
L 248.889941 61.34371 
L 250.871006 61.347215 
L 252.852071 61.536411 
L 254.833136 61.705009 
L 256.814201 62.363229 
L 258.795266 63.098678 
L 260.776331 64.102518 
L 262.757396 64.682649 
L 264.738462 65.208242 
" clip-path="url(#p6bcca7461f)" style="fill: none; stroke: #1f77b4; stroke-width: 1.5; stroke-linecap: square"/>
   </g>
  </g>
  <g id="axes_24">
   <g id="line2d_38">
    <path d="M 264.738462 60.998705 
L 266.719527 61.029941 
L 268.700592 61.026682 
L 270.681657 61.118483 
L 272.662722 60.927811 
L 274.643787 61.216739 
L 276.624852 61.172407 
L 278.605917 61.035782 
L 280.586982 61.578345 
L 282.568047 62.081864 
L 284.549112 62.534779 
L 286.530178 63.50062 
L 288.511243 64.391999 
L 290.492308 65.022059 
" clip-path="url(#p59dd99e3b5)" style="fill: none; stroke: #1f77b4; stroke-width: 1.5; stroke-linecap: square"/>
   </g>
  </g>
  <g id="axes_25">
   <g id="line2d_39">
    <path d="M 290.492308 61.063206 
L 292.473373 60.97989 
L 294.454438 61.055151 
L 296.435503 60.914898 
L 298.416568 61.045805 
L 300.397633 61.07495 
L 302.378698 61.467668 
L 304.359763 61.255415 
L 306.340828 61.581973 
L 308.321893 61.929007 
L 310.302959 62.290613 
L 312.284024 63.084782 
L 314.265089 64.305671 
L 316.246154 64.751208 
" clip-path="url(#p90b6ba0ce0)" style="fill: none; stroke: #1f77b4; stroke-width: 1.5; stroke-linecap: square"/>
   </g>
  </g>
  <g id="axes_26">
   <g id="line2d_40">
    <path d="M 316.246154 60.911643 
L 318.227219 60.897986 
L 320.208284 61.038148 
L 322.189349 61.04706 
L 324.170414 61.089421 
L 326.151479 61.188032 
L 328.132544 60.99625 
L 330.113609 60.914537 
L 332.094675 61.13537 
L 334.07574 61.556087 
L 336.056805 62.159906 
L 338.03787 62.727498 
L 340.018935 63.867195 
L 342 64.441616 
" clip-path="url(#p57a1ea13a0)" style="fill: none; stroke: #1f77b4; stroke-width: 1.5; stroke-linecap: square"/>
   </g>
  </g>
  <g id="axes_27">
   <g id="line2d_41">
    <path d="M 7.2 85.645469 
L 9.181065 85.736101 
L 11.16213 85.687711 
L 13.143195 85.724726 
L 15.12426 85.893262 
L 17.105325 86.108591 
L 19.086391 86.538263 
L 21.067456 87.014236 
L 23.048521 87.840378 
L 25.029586 89.147841 
L 27.010651 89.582002 
L 28.991716 89.939735 
L 30.972781 90.580063 
L 32.953846 91.208093 
" clip-path="url(#pf90180d69f)" style="fill: none; stroke: #1f77b4; stroke-width: 1.5; stroke-linecap: square"/>
   </g>
  </g>
  <g id="axes_28">
   <g id="line2d_42">
    <path d="M 32.953846 85.780925 
L 34.934911 85.703574 
L 36.915976 85.752764 
L 38.897041 85.55908 
L 40.878107 85.765615 
L 42.859172 85.788857 
L 44.840237 86.21853 
L 46.821302 86.768717 
L 48.802367 87.31952 
L 50.783432 88.826386 
L 52.764497 89.631623 
L 54.745562 90.021451 
L 56.726627 90.393449 
L 58.707692 91.142425 
" clip-path="url(#p43b872e38b)" style="fill: none; stroke: #1f77b4; stroke-width: 1.5; stroke-linecap: square"/>
   </g>
  </g>
  <g id="axes_29">
   <g id="line2d_43">
    <path d="M 58.707692 87.935191 
L 60.688757 87.5825 
L 62.669822 87.698158 
L 64.650888 87.973374 
L 66.631953 88.55615 
L 68.613018 89.221134 
L 70.594083 89.711187 
L 72.575148 90.553377 
L 74.556213 91.555065 
L 76.537278 92.551588 
L 78.518343 92.82121 
L 80.499408 91.543137 
L 82.480473 91.38616 
L 84.461538 93.263548 
" clip-path="url(#p457e45e83f)" style="fill: none; stroke: #1f77b4; stroke-width: 1.5; stroke-linecap: square"/>
   </g>
   <g id="line2d_44">
    <g clip-path="url(#p457e45e83f)">
     <use xlink:href="#ma94e9ed1dc" x="78.518343" y="92.82121" style="fill: #ff7f0e; stroke: #ff7f0e"/>
    </g>
   </g>
   <g id="line2d_45">
    <g clip-path="url(#p457e45e83f)">
     <use xlink:href="#mb54fff5fd8" x="84.461538" y="93.263548" style="fill: #2ca02c; stroke: #2ca02c"/>
    </g>
   </g>
  </g>
  <g id="axes_30">
   <g id="line2d_46">
    <path d="M 84.461538 87.842099 
L 86.442604 87.815967 
L 88.423669 87.855012 
L 90.404734 87.713714 
L 92.385799 88.059272 
L 94.366864 88.898449 
L 96.347929 89.93125 
L 98.328994 91.513131 
L 100.310059 93.597854 
L 102.291124 94.717352 
L 104.272189 94.834915 
L 106.253254 92.629492 
L 108.23432 91.398826 
L 110.215385 92.819242 
" clip-path="url(#pc18bf8a74d)" style="fill: none; stroke: #1f77b4; stroke-width: 1.5; stroke-linecap: square"/>
   </g>
   <g id="line2d_47">
    <g clip-path="url(#pc18bf8a74d)">
     <use xlink:href="#ma94e9ed1dc" x="104.272189" y="94.834915" style="fill: #ff7f0e; stroke: #ff7f0e"/>
    </g>
   </g>
   <g id="line2d_48">
    <g clip-path="url(#pc18bf8a74d)">
     <use xlink:href="#mb54fff5fd8" x="110.215385" y="92.819242" style="fill: #2ca02c; stroke: #2ca02c"/>
    </g>
   </g>
  </g>
  <g id="axes_31">
   <g id="line2d_49">
    <path d="M 110.215385 85.869467 
L 112.19645 85.766168 
L 114.177515 85.762725 
L 116.15858 85.681624 
L 118.139645 85.701791 
L 120.12071 85.79476 
L 122.101775 86.037081 
L 124.08284 86.469275 
L 126.063905 86.869495 
L 128.04497 88.037997 
L 130.026036 89.51904 
L 132.007101 89.593378 
L 133.988166 89.998886 
L 135.969231 90.585474 
" clip-path="url(#p126a479fb1)" style="fill: none; stroke: #1f77b4; stroke-width: 1.5; stroke-linecap: square"/>
   </g>
  </g>
  <g id="axes_32">
   <g id="line2d_50">
    <path d="M 135.969231 85.799064 
L 137.950296 85.861289 
L 139.931361 85.769181 
L 141.912426 85.988629 
L 143.893491 85.903531 
L 145.874556 85.945035 
L 147.855621 86.038249 
L 149.836686 86.43767 
L 151.817751 86.72334 
L 153.798817 87.704552 
L 155.779882 88.726224 
L 157.760947 89.978779 
L 159.742012 90.40009 
L 161.723077 90.654585 
" clip-path="url(#pe7c0911e3e)" style="fill: none; stroke: #1f77b4; stroke-width: 1.5; stroke-linecap: square"/>
   </g>
  </g>
  <g id="axes_33">
   <g id="line2d_51">
    <path d="M 161.723077 92.362761 
L 163.704142 92.351263 
L 165.685207 92.600409 
L 167.666272 92.735435 
L 169.647337 94.330782 
L 171.628402 96.281955 
L 173.609467 97.900237 
L 175.590533 100.14993 
L 177.571598 101.935334 
L 179.552663 103.64972 
L 181.533728 103.585527 
L 183.514793 100.878492 
L 185.495858 95.631543 
L 187.476923 93.656144 
" clip-path="url(#p9c918bbe74)" style="fill: none; stroke: #1f77b4; stroke-width: 1.5; stroke-linecap: square"/>
   </g>
   <g id="line2d_52">
    <g clip-path="url(#p9c918bbe74)">
     <use xlink:href="#ma94e9ed1dc" x="179.552663" y="103.64972" style="fill: #ff7f0e; stroke: #ff7f0e"/>
    </g>
   </g>
   <g id="line2d_53"/>
  </g>
  <g id="axes_34">
   <g id="line2d_54">
    <path d="M 187.476923 85.762356 
L 189.457988 85.948601 
L 191.439053 85.772502 
L 193.420118 85.746185 
L 195.401183 85.923145 
L 197.382249 85.95973 
L 199.363314 85.99238 
L 201.344379 86.243125 
L 203.325444 86.769332 
L 205.306509 87.187937 
L 207.287574 87.966918 
L 209.268639 89.329229 
L 211.249704 89.775749 
L 213.230769 90.289966 
" clip-path="url(#p271d1c2530)" style="fill: none; stroke: #1f77b4; stroke-width: 1.5; stroke-linecap: square"/>
   </g>
  </g>
  <g id="axes_35">
   <g id="line2d_55">
    <path d="M 213.230769 86.018881 
L 215.211834 85.784123 
L 217.192899 85.821199 
L 219.173964 85.953028 
L 221.15503 85.759589 
L 223.136095 85.969138 
L 225.11716 85.776498 
L 227.098225 86.166081 
L 229.07929 86.736867 
L 231.060355 87.068836 
L 233.04142 87.958556 
L 235.022485 89.244499 
L 237.00355 89.642567 
L 238.984615 90.306383 
" clip-path="url(#pcdf2d48302)" style="fill: none; stroke: #1f77b4; stroke-width: 1.5; stroke-linecap: square"/>
   </g>
  </g>
  <g id="axes_36">
   <g id="line2d_56">
    <path d="M 238.984615 85.667973 
L 240.96568 85.801032 
L 242.946746 85.898489 
L 244.927811 85.846286 
L 246.908876 85.885638 
L 248.889941 85.978053 
L 250.871006 86.159256 
L 252.852071 86.471242 
L 254.833136 86.751378 
L 256.814201 87.070496 
L 258.795266 87.710394 
L 260.776331 88.857376 
L 262.757396 89.502008 
L 264.738462 89.849226 
" clip-path="url(#p71f756dc39)" style="fill: none; stroke: #1f77b4; stroke-width: 1.5; stroke-linecap: square"/>
   </g>
  </g>
  <g id="axes_37">
   <g id="line2d_57">
    <path d="M 264.738462 85.708432 
L 266.719527 85.818863 
L 268.700592 85.64221 
L 270.681657 86.032838 
L 272.662722 85.833005 
L 274.643787 86.052945 
L 276.624852 85.866577 
L 278.605917 86.122179 
L 280.586982 86.3653 
L 282.568047 86.929814 
L 284.549112 87.56473 
L 286.530178 88.552399 
L 288.511243 89.382108 
L 290.492308 89.553288 
" clip-path="url(#pfb22ea2092)" style="fill: none; stroke: #1f77b4; stroke-width: 1.5; stroke-linecap: square"/>
   </g>
  </g>
  <g id="axes_38">
   <g id="line2d_58">
    <path d="M 290.492308 85.662624 
L 292.473373 85.549672 
L 294.454438 85.599354 
L 296.435503 85.674245 
L 298.416568 85.828947 
L 300.397633 85.879797 
L 302.378698 85.851082 
L 304.359763 86.006952 
L 306.340828 86.319061 
L 308.321893 86.697515 
L 310.302959 86.900607 
L 312.284024 87.891658 
L 314.265089 89.040423 
L 316.246154 89.814424 
" clip-path="url(#pc6f7778977)" style="fill: none; stroke: #1f77b4; stroke-width: 1.5; stroke-linecap: square"/>
   </g>
  </g>
  <g id="axes_39">
   <g id="line2d_59">
    <path d="M 316.246154 85.509745 
L 318.227219 85.555578 
L 320.208284 85.755462 
L 322.189349 85.578264 
L 324.170414 85.54169 
L 326.151479 85.604537 
L 328.132544 85.44493 
L 330.113609 85.676064 
L 332.094675 86.114837 
L 334.07574 86.469466 
L 336.056805 86.898401 
L 338.03787 87.527683 
L 340.018935 88.959741 
L 342 89.304764 
" clip-path="url(#p95ba505984)" style="fill: none; stroke: #1f77b4; stroke-width: 1.5; stroke-linecap: square"/>
   </g>
  </g>
  <g id="axes_40">
   <g id="line2d_60">
    <path d="M 7.2 110.995585 
L 9.181065 111.036289 
L 11.16213 111.030079 
L 13.143195 110.993494 
L 15.12426 111.37287 
L 17.105325 111.543497 
L 19.086391 111.908608 
L 21.067456 112.407269 
L 23.048521 113.699423 
L 25.029586 114.262953 
L 27.010651 114.574632 
L 28.991716 114.600579 
L 30.972781 115.457834 
L 32.953846 115.863649 
" clip-path="url(#pa173b98598)" style="fill: none; stroke: #1f77b4; stroke-width: 1.5; stroke-linecap: square"/>
   </g>
  </g>
  <g id="axes_41">
   <g id="line2d_61">
    <path d="M 32.953846 118.66599 
L 34.934911 118.904867 
L 36.915976 118.81608 
L 38.897041 118.774207 
L 40.878107 120.585989 
L 42.859172 122.186808 
L 44.840237 124.264461 
L 46.821302 125.687766 
L 48.802367 125.84628 
L 50.783432 124.844469 
L 52.764497 120.54467 
L 54.745562 118.415921 
L 56.726627 120.389291 
L 58.707692 121.982302 
" clip-path="url(#p68ce799686)" style="fill: none; stroke: #1f77b4; stroke-width: 1.5; stroke-linecap: square"/>
   </g>
   <g id="line2d_62">
    <g clip-path="url(#p68ce799686)">
     <use xlink:href="#ma94e9ed1dc" x="48.802367" y="125.84628" style="fill: #ff7f0e; stroke: #ff7f0e"/>
    </g>
   </g>
   <g id="line2d_63">
    <g clip-path="url(#p68ce799686)">
     <use xlink:href="#mb54fff5fd8" x="58.707692" y="121.982302" style="fill: #2ca02c; stroke: #2ca02c"/>
    </g>
   </g>
  </g>
  <g id="axes_42">
   <g id="line2d_64">
    <path d="M 58.707692 115.711468 
L 60.688757 115.555598 
L 62.669822 115.41055 
L 64.650888 115.763179 
L 66.631953 116.646074 
L 68.613018 118.138307 
L 70.594083 120.628231 
L 72.575148 124.117383 
L 74.556213 127.408055 
L 76.537278 128.829762 
L 78.518343 126.497614 
L 80.499408 120.803777 
L 82.480473 117.881475 
L 84.461538 121.750249 
" clip-path="url(#p9af73a553e)" style="fill: none; stroke: #1f77b4; stroke-width: 1.5; stroke-linecap: square"/>
   </g>
   <g id="line2d_65">
    <g clip-path="url(#p9af73a553e)">
     <use xlink:href="#ma94e9ed1dc" x="76.537278" y="128.829762" style="fill: #ff7f0e; stroke: #ff7f0e"/>
    </g>
   </g>
   <g id="line2d_66">
    <g clip-path="url(#p9af73a553e)">
     <use xlink:href="#mb54fff5fd8" x="84.461538" y="121.750249" style="fill: #2ca02c; stroke: #2ca02c"/>
    </g>
   </g>
  </g>
  <g id="axes_43">
   <g id="line2d_67">
    <path d="M 84.461538 115.521473 
L 86.442604 115.617454 
L 88.423669 115.520243 
L 90.404734 115.558673 
L 92.385799 116.7993 
L 94.366864 119.079491 
L 96.347929 122.843676 
L 98.328994 128.308965 
L 100.310059 132.499933 
L 102.291124 134.56 
L 104.272189 132.040562 
L 106.253254 124.343902 
L 108.23432 118.406391 
L 110.215385 124.020479 
" clip-path="url(#pa195833bb6)" style="fill: none; stroke: #1f77b4; stroke-width: 1.5; stroke-linecap: square"/>
   </g>
   <g id="line2d_68">
    <g clip-path="url(#pa195833bb6)">
     <use xlink:href="#ma94e9ed1dc" x="102.291124" y="134.56" style="fill: #ff7f0e; stroke: #ff7f0e"/>
    </g>
   </g>
   <g id="line2d_69">
    <g clip-path="url(#pa195833bb6)">
     <use xlink:href="#mb54fff5fd8" x="110.215385" y="124.020479" style="fill: #2ca02c; stroke: #2ca02c"/>
    </g>
   </g>
  </g>
  <g id="axes_44">
   <g id="line2d_70">
    <path d="M 110.215385 110.477002 
L 112.19645 110.420003 
L 114.177515 110.404508 
L 116.15858 110.475342 
L 118.139645 110.464766 
L 120.12071 110.645968 
L 122.101775 110.573475 
L 124.08284 111.216078 
L 126.063905 111.83839 
L 128.04497 112.924192 
L 130.026036 113.993393 
L 132.007101 114.971347 
L 133.988166 115.170197 
L 135.969231 115.508376 
" clip-path="url(#p3e1cfb4bc6)" style="fill: none; stroke: #1f77b4; stroke-width: 1.5; stroke-linecap: square"/>
   </g>
  </g>
  <g id="axes_45">
   <g id="line2d_71">
    <path d="M 135.969231 110.544207 
L 137.950296 110.4786 
L 139.931361 110.664907 
L 141.912426 110.553061 
L 143.893491 110.548327 
L 145.874556 110.452222 
L 147.855621 110.614364 
L 149.836686 111.190007 
L 151.817751 111.818591 
L 153.798817 112.67726 
L 155.779882 113.904606 
L 157.760947 114.673872 
L 159.742012 114.854767 
L 161.723077 115.384418 
" clip-path="url(#pe9da88ceb9)" style="fill: none; stroke: #1f77b4; stroke-width: 1.5; stroke-linecap: square"/>
   </g>
  </g>
  <g id="axes_46">
   <g id="line2d_72">
    <path d="M 161.723077 111.443949 
L 163.704142 111.541898 
L 165.685207 111.598344 
L 167.666272 111.489081 
L 169.647337 111.851609 
L 171.628402 112.35894 
L 173.609467 112.818434 
L 175.590533 113.651401 
L 177.571598 114.405972 
L 179.552663 115.302271 
L 181.533728 116.12663 
L 183.514793 116.213696 
L 185.495858 115.829893 
L 187.476923 115.648997 
" clip-path="url(#p6e4282ff84)" style="fill: none; stroke: #1f77b4; stroke-width: 1.5; stroke-linecap: square"/>
   </g>
  </g>
  <g id="axes_47">
   <g id="line2d_73">
    <path d="M 187.476923 110.450624 
L 189.457988 110.390797 
L 191.439053 110.487577 
L 193.420118 110.418527 
L 195.401183 110.394916 
L 197.382249 110.595795 
L 199.363314 110.855394 
L 201.344379 111.063897 
L 203.325444 111.638556 
L 205.306509 112.256564 
L 207.287574 113.444497 
L 209.268639 114.22686 
L 211.249704 114.812341 
L 213.230769 115.262058 
" clip-path="url(#pd94393b613)" style="fill: none; stroke: #1f77b4; stroke-width: 1.5; stroke-linecap: square"/>
   </g>
  </g>
  <g id="axes_48">
   <g id="line2d_74">
    <path d="M 213.230769 110.446934 
L 215.211834 110.580915 
L 217.192899 110.61172 
L 219.173964 110.348801 
L 221.15503 110.401372 
L 223.136095 110.387415 
L 225.11716 110.40789 
L 227.098225 110.89905 
L 229.07929 111.388549 
L 231.060355 112.206883 
L 233.04142 112.893141 
L 235.022485 113.595202 
L 237.00355 114.342825 
L 238.984615 114.84911 
" clip-path="url(#pd0bb22a2cf)" style="fill: none; stroke: #1f77b4; stroke-width: 1.5; stroke-linecap: square"/>
   </g>
  </g>
  <g id="axes_49">
   <g id="line2d_75">
    <path d="M 238.984615 110.437711 
L 240.96568 110.371859 
L 242.946746 110.375117 
L 244.927811 110.395039 
L 246.908876 110.375302 
L 248.889941 110.446197 
L 250.871006 110.600898 
L 252.852071 110.702229 
L 254.833136 111.148749 
L 256.814201 111.851302 
L 258.795266 112.676214 
L 260.776331 113.678148 
L 262.757396 114.132416 
L 264.738462 114.754297 
" clip-path="url(#p4acb72dc6a)" style="fill: none; stroke: #1f77b4; stroke-width: 1.5; stroke-linecap: square"/>
   </g>
  </g>
  <g id="axes_50">
   <g id="line2d_76">
    <path d="M 264.738462 110.35083 
L 266.719527 110.417482 
L 268.700592 110.511189 
L 270.681657 110.471898 
L 272.662722 110.59309 
L 274.643787 110.452099 
L 276.624852 110.534677 
L 278.605917 110.81266 
L 280.586982 111.150901 
L 282.568047 111.659708 
L 284.549112 112.628869 
L 286.530178 113.633693 
L 288.511243 114.114031 
L 290.492308 114.44102 
" clip-path="url(#p0555255de4)" style="fill: none; stroke: #1f77b4; stroke-width: 1.5; stroke-linecap: square"/>
   </g>
  </g>
  <g id="axes_51">
   <g id="line2d_77">
    <path d="M 290.492308 110.31031 
L 292.473373 110.410534 
L 294.454438 110.293401 
L 296.435503 110.415453 
L 298.416568 110.402541 
L 300.397633 110.533508 
L 302.378698 110.418404 
L 304.359763 110.616393 
L 306.340828 110.998905 
L 308.321893 111.322205 
L 310.302959 111.908485 
L 312.284024 112.942146 
L 314.265089 114.000218 
L 316.246154 114.349158 
" clip-path="url(#pf36d8b8016)" style="fill: none; stroke: #1f77b4; stroke-width: 1.5; stroke-linecap: square"/>
   </g>
  </g>
  <g id="axes_52">
   <g id="line2d_78">
    <path d="M 316.246154 110.143842 
L 318.227219 110.108889 
L 320.208284 109.92 
L 322.189349 109.966181 
L 324.170414 110.291759 
L 326.151479 110.287708 
L 328.132544 110.337245 
L 330.113609 110.439791 
L 332.094675 110.566759 
L 334.07574 110.986897 
L 336.056805 111.336318 
L 338.03787 112.42752 
L 340.018935 113.572426 
L 342 113.806454 
" clip-path="url(#pbfae0c8e6b)" style="fill: none; stroke: #1f77b4; stroke-width: 1.5; stroke-linecap: square"/>
   </g>
  </g>
  <g id="axes_53">
   <g id="line2d_79">
    <path d="M 7.2 138.231021 
L 9.181065 138.241351 
L 11.16213 138.190747 
L 13.143195 138.490066 
L 15.12426 139.476321 
L 17.105325 140.387807 
L 19.086391 141.402285 
L 21.067456 142.624035 
L 23.048521 143.898849 
L 25.029586 144.079253 
L 27.010651 142.180958 
L 28.991716 140.97378 
L 30.972781 142.189813 
L 32.953846 143.63716 
" clip-path="url(#p9834b5d8de)" style="fill: none; stroke: #1f77b4; stroke-width: 1.5; stroke-linecap: square"/>
   </g>
   <g id="line2d_80">
    <g clip-path="url(#p9834b5d8de)">
     <use xlink:href="#ma94e9ed1dc" x="25.029586" y="144.079253" style="fill: #ff7f0e; stroke: #ff7f0e"/>
    </g>
   </g>
   <g id="line2d_81">
    <g clip-path="url(#p9834b5d8de)">
     <use xlink:href="#mb54fff5fd8" x="32.953846" y="143.63716" style="fill: #2ca02c; stroke: #2ca02c"/>
    </g>
   </g>
  </g>
  <g id="axes_54">
   <g id="line2d_82">
    <path d="M 32.953846 136.627804 
L 34.934911 136.881315 
L 36.915976 136.906894 
L 38.897041 136.839012 
L 40.878107 137.408322 
L 42.859172 138.316304 
L 44.840237 138.861142 
L 46.821302 139.401737 
L 48.802367 140.743511 
L 50.783432 141.479021 
L 52.764497 140.839369 
L 54.745562 140.2949 
L 56.726627 141.154553 
L 58.707692 142.17235 
" clip-path="url(#pb529f478be)" style="fill: none; stroke: #1f77b4; stroke-width: 1.5; stroke-linecap: square"/>
   </g>
   <g id="line2d_83">
    <g clip-path="url(#pb529f478be)">
     <use xlink:href="#ma94e9ed1dc" x="50.783432" y="141.479021" style="fill: #ff7f0e; stroke: #ff7f0e"/>
    </g>
   </g>
   <g id="line2d_84">
    <g clip-path="url(#pb529f478be)">
     <use xlink:href="#mb54fff5fd8" x="58.707692" y="142.17235" style="fill: #2ca02c; stroke: #2ca02c"/>
    </g>
   </g>
  </g>
  <g id="axes_55">
   <g id="line2d_85">
    <path d="M 58.707692 135.063815 
L 60.688757 134.958857 
L 62.669822 135.017269 
L 64.650888 135.104704 
L 66.631953 135.090255 
L 68.613018 135.111099 
L 70.594083 135.776021 
L 72.575148 136.224448 
L 74.556213 137.432794 
L 76.537278 138.496031 
L 78.518343 139.396818 
L 80.499408 139.836513 
L 82.480473 140.111299 
L 84.461538 140.735702 
" clip-path="url(#p1524313ae5)" style="fill: none; stroke: #1f77b4; stroke-width: 1.5; stroke-linecap: square"/>
   </g>
  </g>
  <g id="axes_56">
   <g id="line2d_86">
    <path d="M 84.461538 134.828504 
L 86.442604 135.077096 
L 88.423669 135.165269 
L 90.404734 134.976012 
L 92.385799 134.963099 
L 94.366864 135.231737 
L 96.347929 135.525707 
L 98.328994 136.015268 
L 100.310059 137.116934 
L 102.291124 138.353811 
L 104.272189 139.113547 
L 106.253254 139.410222 
L 108.23432 139.948543 
L 110.215385 140.537467 
" clip-path="url(#pd46bd80365)" style="fill: none; stroke: #1f77b4; stroke-width: 1.5; stroke-linecap: square"/>
   </g>
  </g>
  <g id="axes_57">
   <g id="line2d_87">
    <path d="M 110.215385 135.129176 
L 112.19645 135.121736 
L 114.177515 135.043463 
L 116.15858 135.045492 
L 118.139645 135.136309 
L 120.12071 135.08263 
L 122.101775 135.592605 
L 124.08284 136.009673 
L 126.063905 136.752254 
L 128.04497 138.07263 
L 130.026036 139.197231 
L 132.007101 139.573778 
L 133.988166 139.992014 
L 135.969231 140.403609 
" clip-path="url(#pc535957a23)" style="fill: none; stroke: #1f77b4; stroke-width: 1.5; stroke-linecap: square"/>
   </g>
  </g>
  <g id="axes_58">
   <g id="line2d_88">
    <path d="M 135.969231 134.916984 
L 137.950296 134.968449 
L 139.931361 134.697106 
L 141.912426 134.998331 
L 143.893491 135.173877 
L 145.874556 135.246555 
L 147.855621 135.597094 
L 149.836686 136.04263 
L 151.817751 136.539569 
L 153.798817 137.752712 
L 155.779882 138.88008 
L 157.760947 139.219366 
L 159.742012 140.064569 
L 161.723077 140.2577 
" clip-path="url(#p35b2eeb9fb)" style="fill: none; stroke: #1f77b4; stroke-width: 1.5; stroke-linecap: square"/>
   </g>
  </g>
  <g id="axes_59">
   <g id="line2d_89">
    <path d="M 161.723077 135.003619 
L 163.704142 135.049612 
L 165.685207 134.912003 
L 167.666272 135.230261 
L 169.647337 134.970724 
L 171.628402 135.338786 
L 173.609467 135.423638 
L 175.590533 135.737223 
L 177.571598 136.494438 
L 179.552663 137.678435 
L 181.533728 138.390703 
L 183.514793 139.334101 
L 185.495858 139.513767 
L 187.476923 140.305168 
" clip-path="url(#pb21cb03437)" style="fill: none; stroke: #1f77b4; stroke-width: 1.5; stroke-linecap: square"/>
   </g>
  </g>
  <g id="axes_60">
   <g id="line2d_90">
    <path d="M 187.476923 135.01813 
L 189.457988 135.281972 
L 191.439053 135.218025 
L 193.420118 135.121613 
L 195.401183 135.228539 
L 197.382249 135.224912 
L 199.363314 135.426098 
L 201.344379 135.61966 
L 203.325444 136.354247 
L 205.306509 137.106358 
L 207.287574 138.316795 
L 209.268639 139.162429 
L 211.249704 139.293335 
L 213.230769 139.761314 
" clip-path="url(#pf38b48c882)" style="fill: none; stroke: #1f77b4; stroke-width: 1.5; stroke-linecap: square"/>
   </g>
  </g>
  <g id="axes_61">
   <g id="line2d_91">
    <path d="M 213.230769 135.037191 
L 215.211834 135.11774 
L 217.192899 134.947051 
L 219.173964 134.969248 
L 221.15503 135.033994 
L 223.136095 135.099416 
L 225.11716 135.372542 
L 227.098225 135.797296 
L 229.07929 136.19807 
L 231.060355 136.900561 
L 233.04142 138.074843 
L 235.022485 139.061098 
L 237.00355 139.275996 
L 238.984615 139.700134 
" clip-path="url(#pcff672150a)" style="fill: none; stroke: #1f77b4; stroke-width: 1.5; stroke-linecap: square"/>
   </g>
  </g>
  <g id="axes_62">
   <g id="line2d_92">
    <path d="M 238.984615 134.883904 
L 240.96568 134.851315 
L 242.946746 135.063569 
L 244.927811 134.994519 
L 246.908876 135.07433 
L 248.889941 135.20997 
L 250.871006 135.447741 
L 252.852071 135.539665 
L 254.833136 136.051976 
L 256.814201 136.875167 
L 258.795266 137.68483 
L 260.776331 138.747759 
L 262.757396 138.870119 
L 264.738462 139.669145 
" clip-path="url(#pe8e118499a)" style="fill: none; stroke: #1f77b4; stroke-width: 1.5; stroke-linecap: square"/>
   </g>
  </g>
  <g id="axes_63">
   <g id="line2d_93">
    <path d="M 264.738462 134.99206 
L 266.719527 135.058158 
L 268.700592 135.000852 
L 270.681657 135.120076 
L 272.662722 134.841355 
L 274.643787 135.233458 
L 276.624852 135.317634 
L 278.605917 135.488999 
L 280.586982 135.923406 
L 282.568047 136.5491 
L 284.549112 137.619162 
L 286.530178 138.332044 
L 288.511243 138.826586 
L 290.492308 139.067493 
" clip-path="url(#p64ca7d4ce0)" style="fill: none; stroke: #1f77b4; stroke-width: 1.5; stroke-linecap: square"/>
   </g>
  </g>
  <g id="axes_64">
   <g id="line2d_94">
    <path d="M 290.492308 135.041434 
L 292.473373 134.928912 
L 294.454438 135.097387 
L 296.435503 134.869577 
L 298.416568 135.010075 
L 300.397633 135.015978 
L 302.378698 135.277975 
L 304.359763 135.618922 
L 306.340828 135.883931 
L 308.321893 136.415119 
L 310.302959 137.217158 
L 312.284024 138.171501 
L 314.265089 138.852349 
L 316.246154 138.968498 
" clip-path="url(#p89ae057138)" style="fill: none; stroke: #1f77b4; stroke-width: 1.5; stroke-linecap: square"/>
   </g>
  </g>
  <g id="axes_65">
   <g id="line2d_95">
    <path d="M 316.246154 134.86949 
L 318.227219 134.677014 
L 320.208284 134.764629 
L 322.189349 134.729213 
L 324.170414 134.91625 
L 326.151479 134.945185 
L 328.132544 135.028518 
L 330.113609 135.500161 
L 332.094675 135.397383 
L 334.07574 136.313933 
L 336.056805 136.622729 
L 338.03787 137.587543 
L 340.018935 138.490667 
L 342 138.725389 
" clip-path="url(#p4f2ede5086)" style="fill: none; stroke: #1f77b4; stroke-width: 1.5; stroke-linecap: square"/>
   </g>
  </g>
  <g id="axes_66">
   <g id="line2d_96">
    <path d="M 7.2 159.666861 
L 9.181065 159.604206 
L 11.16213 159.658622 
L 13.143195 159.869769 
L 15.12426 159.830602 
L 17.105325 160.20967 
L 19.086391 160.808248 
L 21.067456 161.503361 
L 23.048521 162.686375 
L 25.029586 163.640287 
L 27.010651 164.017757 
L 28.991716 164.506457 
L 30.972781 164.977265 
L 32.953846 165.410504 
" clip-path="url(#p57a8e03f4e)" style="fill: none; stroke: #1f77b4; stroke-width: 1.5; stroke-linecap: square"/>
   </g>
  </g>
  <g id="axes_67">
   <g id="line2d_97">
    <path d="M 32.953846 159.618901 
L 34.934911 159.57297 
L 36.915976 159.856365 
L 38.897041 159.635257 
L 40.878107 159.883419 
L 42.859172 160.096841 
L 44.840237 160.548957 
L 46.821302 161.300146 
L 48.802367 162.592545 
L 50.783432 163.455949 
L 52.764497 163.890479 
L 54.745562 164.406787 
L 56.726627 165.124834 
L 58.707692 165.441862 
" clip-path="url(#p19ed9b2b8d)" style="fill: none; stroke: #1f77b4; stroke-width: 1.5; stroke-linecap: square"/>
   </g>
  </g>
  <g id="axes_68">
   <g id="line2d_98">
    <path d="M 58.707692 159.719064 
L 60.688757 159.650506 
L 62.669822 159.773665 
L 64.650888 159.732837 
L 66.631953 159.884096 
L 68.613018 160.187658 
L 70.594083 160.811507 
L 72.575148 161.250649 
L 74.556213 162.3699 
L 76.537278 163.653384 
L 78.518343 164.189122 
L 80.499408 164.60084 
L 82.480473 164.975359 
L 84.461538 165.289189 
" clip-path="url(#p339054b120)" style="fill: none; stroke: #1f77b4; stroke-width: 1.5; stroke-linecap: square"/>
   </g>
  </g>
  <g id="axes_69">
   <g id="line2d_99">
    <path d="M 84.461538 159.687275 
L 86.442604 159.579857 
L 88.423669 159.762597 
L 90.404734 159.69244 
L 92.385799 159.884649 
L 94.366864 160.091123 
L 96.347929 160.514708 
L 98.328994 161.0601 
L 100.310059 162.370085 
L 102.291124 163.444635 
L 104.272189 164.049116 
L 106.253254 164.346652 
L 108.23432 165.039367 
L 110.215385 165.831875 
" clip-path="url(#pcdc0f719e7)" style="fill: none; stroke: #1f77b4; stroke-width: 1.5; stroke-linecap: square"/>
   </g>
  </g>
  <g id="axes_70">
   <g id="line2d_100">
    <path d="M 110.215385 159.773972 
L 112.19645 159.640791 
L 114.177515 159.702401 
L 116.15858 159.81769 
L 118.139645 159.708181 
L 120.12071 159.810127 
L 122.101775 160.221845 
L 124.08284 160.852458 
L 126.063905 161.567431 
L 128.04497 163.35511 
L 130.026036 163.896443 
L 132.007101 164.272744 
L 133.988166 164.442326 
L 135.969231 165.185092 
" clip-path="url(#pc5d7dbc977)" style="fill: none; stroke: #1f77b4; stroke-width: 1.5; stroke-linecap: square"/>
   </g>
  </g>
  <g id="axes_71">
   <g id="line2d_101">
    <path d="M 135.969231 159.780674 
L 137.950296 159.711194 
L 139.931361 159.771082 
L 141.912426 159.822363 
L 143.893491 159.789282 
L 145.874556 160.061425 
L 147.855621 160.098256 
L 149.836686 160.781009 
L 151.817751 161.434126 
L 153.798817 162.865425 
L 155.779882 163.654368 
L 157.760947 164.230134 
L 159.742012 164.438022 
L 161.723077 165.171011 
" clip-path="url(#p3e93caad13)" style="fill: none; stroke: #1f77b4; stroke-width: 1.5; stroke-linecap: square"/>
   </g>
  </g>
  <g id="axes_72">
   <g id="line2d_102">
    <path d="M 161.723077 159.739109 
L 163.704142 159.665878 
L 165.685207 159.588588 
L 167.666272 159.875303 
L 169.647337 159.907768 
L 171.628402 159.885325 
L 173.609467 160.008238 
L 175.590533 160.55363 
L 177.571598 161.506927 
L 179.552663 162.415155 
L 181.533728 163.762462 
L 183.514793 163.968629 
L 185.495858 164.311543 
L 187.476923 164.751053 
" clip-path="url(#p5476cc6bda)" style="fill: none; stroke: #1f77b4; stroke-width: 1.5; stroke-linecap: square"/>
   </g>
  </g>
  <g id="axes_73">
   <g id="line2d_103">
    <path d="M 187.476923 159.792234 
L 189.457988 159.644603 
L 191.439053 159.657577 
L 193.420118 159.644726 
L 195.401183 159.827343 
L 197.382249 159.692317 
L 199.363314 160.12199 
L 201.344379 160.405692 
L 203.325444 161.234724 
L 205.306509 162.215506 
L 207.287574 163.275668 
L 209.268639 163.762155 
L 211.249704 163.778572 
L 213.230769 164.76827 
" clip-path="url(#p52275b37b2)" style="fill: none; stroke: #1f77b4; stroke-width: 1.5; stroke-linecap: square"/>
   </g>
   <g id="line2d_104">
    <g clip-path="url(#p52275b37b2)">
     <use xlink:href="#ma94e9ed1dc" x="213.230769" y="164.76827" style="fill: #ff7f0e; stroke: #ff7f0e"/>
    </g>
   </g>
   <g id="line2d_105"/>
  </g>
  <g id="axes_74">
   <g id="line2d_106">
    <path d="M 213.230769 159.5841 
L 215.211834 159.669444 
L 217.192899 159.749623 
L 219.173964 159.638393 
L 221.15503 159.820272 
L 223.136095 159.732284 
L 225.11716 159.998646 
L 227.098225 160.247485 
L 229.07929 160.785867 
L 231.060355 161.887656 
L 233.04142 162.833391 
L 235.022485 163.624546 
L 237.00355 163.822105 
L 238.984615 164.152783 
" clip-path="url(#paec5349302)" style="fill: none; stroke: #1f77b4; stroke-width: 1.5; stroke-linecap: square"/>
   </g>
  </g>
  <g id="axes_75">
   <g id="line2d_107">
    <path d="M 238.984615 159.572848 
L 240.96568 159.586928 
L 242.946746 159.76438 
L 244.927811 159.844006 
L 246.908876 159.757985 
L 248.889941 159.86276 
L 250.871006 160.01783 
L 252.852071 160.147015 
L 254.833136 160.914068 
L 256.814201 161.467821 
L 258.795266 162.319481 
L 260.776331 163.262448 
L 262.757396 163.58292 
L 264.738462 164.276188 
" clip-path="url(#p2ea07a82d1)" style="fill: none; stroke: #1f77b4; stroke-width: 1.5; stroke-linecap: square"/>
   </g>
  </g>
  <g id="axes_76">
   <g id="line2d_108">
    <path d="M 264.738462 160.591813 
L 266.719527 160.581361 
L 268.700592 160.726532 
L 270.681657 160.527252 
L 272.662722 161.035321 
L 274.643787 161.152085 
L 276.624852 161.691696 
L 278.605917 162.131084 
L 280.586982 163.029781 
L 282.568047 163.907879 
L 284.549112 165.020613 
L 286.530178 165.322085 
L 288.511243 164.713792 
L 290.492308 164.860624 
" clip-path="url(#p77e61bf179)" style="fill: none; stroke: #1f77b4; stroke-width: 1.5; stroke-linecap: square"/>
   </g>
  </g>
  <g id="axes_77">
   <g id="line2d_109">
    <path d="M 290.492308 159.76149 
L 292.473373 159.861468 
L 294.454438 160.000429 
L 296.435503 160.037322 
L 298.416568 159.682602 
L 300.397633 160.01119 
L 302.378698 160.160542 
L 304.359763 160.474127 
L 306.340828 160.819869 
L 308.321893 161.19777 
L 310.302959 162.001899 
L 312.284024 163.073191 
L 314.265089 163.301431 
L 316.246154 163.877259 
" clip-path="url(#p1c7a55811f)" style="fill: none; stroke: #1f77b4; stroke-width: 1.5; stroke-linecap: square"/>
   </g>
  </g>
  <g id="axes_78">
   <g id="line2d_110">
    <path d="M 316.246154 159.545138 
L 318.227219 159.41956 
L 320.208284 159.52118 
L 322.189349 159.37419 
L 324.170414 159.578588 
L 326.151479 159.569444 
L 328.132544 159.831481 
L 330.113609 159.908101 
L 332.094675 160.472221 
L 334.07574 160.837035 
L 336.056805 161.377544 
L 338.03787 162.44201 
L 340.018935 163.049417 
L 342 163.551152 
" clip-path="url(#pb115f0e9de)" style="fill: none; stroke: #1f77b4; stroke-width: 1.5; stroke-linecap: square"/>
   </g>
  </g>
  <g id="axes_79">
   <g id="line2d_111">
    <path d="M 7.2 184.423626 
L 9.181065 184.309505 
L 11.16213 184.570273 
L 13.143195 184.615773 
L 15.12426 184.873466 
L 17.105325 185.053439 
L 19.086391 185.645684 
L 21.067456 186.88336 
L 23.048521 187.918558 
L 25.029586 188.498997 
L 27.010651 188.811106 
L 28.991716 189.176832 
L 30.972781 189.735566 
L 32.953846 190.273702 
" clip-path="url(#p1fd6025f43)" style="fill: none; stroke: #1f77b4; stroke-width: 1.5; stroke-linecap: square"/>
   </g>
  </g>
  <g id="axes_80">
   <g id="line2d_112">
    <path d="M 32.953846 184.018486 
L 34.934911 184.088889 
L 36.915976 184.363491 
L 38.897041 184.332686 
L 40.878107 184.435062 
L 42.859172 184.700134 
L 44.840237 185.473581 
L 46.821302 186.569467 
L 48.802367 187.654716 
L 50.783432 188.598176 
L 52.764497 188.862878 
L 54.745562 189.016719 
L 56.726627 189.472585 
L 58.707692 189.991722 
" clip-path="url(#peeeffa93d6)" style="fill: none; stroke: #1f77b4; stroke-width: 1.5; stroke-linecap: square"/>
   </g>
  </g>
  <g id="axes_81">
   <g id="line2d_113">
    <path d="M 58.707692 184.122215 
L 60.688757 184.341417 
L 62.669822 184.264312 
L 64.650888 184.18524 
L 66.631953 184.425839 
L 68.613018 184.569842 
L 70.594083 185.41068 
L 72.575148 186.063674 
L 74.556213 187.224122 
L 76.537278 188.163707 
L 78.518343 188.484425 
L 80.499408 188.887166 
L 82.480473 189.517348 
L 84.461538 189.890391 
" clip-path="url(#p7bea7dfa6a)" style="fill: none; stroke: #1f77b4; stroke-width: 1.5; stroke-linecap: square"/>
   </g>
  </g>
  <g id="axes_82">
   <g id="line2d_114">
    <path d="M 84.461538 184.252814 
L 86.442604 184.432726 
L 88.423669 184.37874 
L 90.404734 184.394358 
L 92.385799 184.40727 
L 94.366864 184.735366 
L 96.347929 185.055284 
L 98.328994 185.838508 
L 100.310059 187.168414 
L 102.291124 188.402954 
L 104.272189 188.812643 
L 106.253254 188.833426 
L 108.23432 189.513597 
L 110.215385 190.141382 
" clip-path="url(#p9f6605a4f6)" style="fill: none; stroke: #1f77b4; stroke-width: 1.5; stroke-linecap: square"/>
   </g>
  </g>
  <g id="axes_83">
   <g id="line2d_115">
    <path d="M 110.215385 184.451602 
L 112.19645 184.437891 
L 114.177515 184.328198 
L 116.15858 184.511737 
L 118.139645 184.442072 
L 120.12071 184.666316 
L 122.101775 184.88189 
L 124.08284 185.678149 
L 126.063905 186.782951 
L 128.04497 187.847356 
L 130.026036 188.746237 
L 132.007101 189.048754 
L 133.988166 189.477689 
L 135.969231 190.037222 
" clip-path="url(#p0e4f21e239)" style="fill: none; stroke: #1f77b4; stroke-width: 1.5; stroke-linecap: square"/>
   </g>
  </g>
  <g id="axes_84">
   <g id="line2d_116">
    <path d="M 135.969231 184.343446 
L 137.950296 184.422088 
L 139.931361 184.253675 
L 141.912426 184.469618 
L 143.893491 184.492799 
L 145.874556 184.540513 
L 147.855621 184.838172 
L 149.836686 185.633755 
L 151.817751 186.368773 
L 153.798817 187.967071 
L 155.779882 188.637589 
L 157.760947 188.77489 
L 159.742012 189.428807 
L 161.723077 189.793549 
" clip-path="url(#pd8ff4cc21c)" style="fill: none; stroke: #1f77b4; stroke-width: 1.5; stroke-linecap: square"/>
   </g>
  </g>
  <g id="axes_85">
   <g id="line2d_117">
    <path d="M 161.723077 191.978988 
L 163.704142 191.963493 
L 165.685207 191.762553 
L 167.666272 192.458096 
L 169.647337 193.796488 
L 171.628402 195.306245 
L 173.609467 197.088267 
L 175.590533 199.049032 
L 177.571598 200.06603 
L 179.552663 200.035533 
L 181.533728 197.717096 
L 183.514793 193.95531 
L 185.495858 192.612675 
L 187.476923 194.384121 
" clip-path="url(#pab821153a2)" style="fill: none; stroke: #1f77b4; stroke-width: 1.5; stroke-linecap: square"/>
   </g>
   <g id="line2d_118">
    <g clip-path="url(#pab821153a2)">
     <use xlink:href="#ma94e9ed1dc" x="177.571598" y="200.06603" style="fill: #ff7f0e; stroke: #ff7f0e"/>
    </g>
   </g>
   <g id="line2d_119">
    <g clip-path="url(#pab821153a2)">
     <use xlink:href="#mb54fff5fd8" x="187.476923" y="194.384121" style="fill: #2ca02c; stroke: #2ca02c"/>
    </g>
   </g>
  </g>
  <g id="axes_86">
   <g id="line2d_120">
    <path d="M 187.476923 185.998682 
L 189.457988 185.896982 
L 191.439053 185.754147 
L 193.420118 186.188677 
L 195.401183 186.410461 
L 197.382249 186.919514 
L 199.363314 187.566605 
L 201.344379 188.279057 
L 203.325444 189.137234 
L 205.306509 190.09004 
L 207.287574 190.512764 
L 209.268639 189.719518 
L 211.249704 189.954891 
L 213.230769 190.73006 
" clip-path="url(#pf1885e2b21)" style="fill: none; stroke: #1f77b4; stroke-width: 1.5; stroke-linecap: square"/>
   </g>
  </g>
  <g id="axes_87">
   <g id="line2d_121">
    <path d="M 213.230769 184.368656 
L 215.211834 184.360724 
L 217.192899 184.334285 
L 219.173964 184.40604 
L 221.15503 184.23074 
L 223.136095 184.350025 
L 225.11716 184.750676 
L 227.098225 185.235318 
L 229.07929 185.94734 
L 231.060355 186.505767 
L 233.04142 187.588618 
L 235.022485 188.156944 
L 237.00355 188.771754 
L 238.984615 189.169023 
" clip-path="url(#p0048a8d5c6)" style="fill: none; stroke: #1f77b4; stroke-width: 1.5; stroke-linecap: square"/>
   </g>
  </g>
  <g id="axes_88">
   <g id="line2d_122">
    <path d="M 238.984615 184.084032 
L 240.96568 184.388025 
L 242.946746 184.007665 
L 244.927811 184.269723 
L 246.908876 184.292289 
L 248.889941 184.522497 
L 250.871006 184.59499 
L 252.852071 184.971477 
L 254.833136 185.400842 
L 256.814201 186.393061 
L 258.795266 187.132752 
L 260.776331 188.071046 
L 262.757396 188.273278 
L 264.738462 188.919016 
" clip-path="url(#p1a97a47cbc)" style="fill: none; stroke: #1f77b4; stroke-width: 1.5; stroke-linecap: square"/>
   </g>
  </g>
  <g id="axes_89">
   <g id="line2d_123">
    <path d="M 264.738462 184.222808 
L 266.719527 184.174234 
L 268.700592 184.278823 
L 270.681657 184.329919 
L 272.662722 184.413542 
L 274.643787 184.355928 
L 276.624852 184.757932 
L 278.605917 184.718211 
L 280.586982 185.400842 
L 282.568047 186.315894 
L 284.549112 187.301349 
L 286.530178 187.963628 
L 288.511243 188.393178 
L 290.492308 188.732464 
" clip-path="url(#p55965b3f04)" style="fill: none; stroke: #1f77b4; stroke-width: 1.5; stroke-linecap: square"/>
   </g>
  </g>
  <g id="axes_90">
   <g id="line2d_124">
    <path d="M 290.492308 184.213462 
L 292.473373 184.196184 
L 294.454438 184.162797 
L 296.435503 184.057408 
L 298.416568 184.091287 
L 300.397633 184.33244 
L 302.378698 184.555147 
L 304.359763 184.831347 
L 306.340828 185.12003 
L 308.321893 185.588132 
L 310.302959 186.559383 
L 312.284024 187.817657 
L 314.265089 188.059364 
L 316.246154 188.465917 
" clip-path="url(#pb1f939f92e)" style="fill: none; stroke: #1f77b4; stroke-width: 1.5; stroke-linecap: square"/>
   </g>
  </g>
  <g id="axes_91">
   <g id="line2d_125">
    <path d="M 316.246154 184.038611 
L 318.227219 184.169745 
L 320.208284 183.934792 
L 322.189349 184.069977 
L 324.170414 184.006204 
L 326.151479 184.07368 
L 328.132544 184.365925 
L 330.113609 184.41199 
L 332.094675 184.899258 
L 334.07574 185.209906 
L 336.056805 186.201456 
L 338.03787 186.843469 
L 340.018935 187.534093 
L 342 187.831662 
" clip-path="url(#pec992d1ca9)" style="fill: none; stroke: #1f77b4; stroke-width: 1.5; stroke-linecap: square"/>
   </g>
  </g>
  <g id="axes_92">
   <g id="line2d_126">
    <path d="M 7.2 208.811959 
L 9.181065 208.94557 
L 11.16213 208.857705 
L 13.143195 209.100702 
L 15.12426 208.904558 
L 17.105325 209.461509 
L 19.086391 210.164124 
L 21.067456 211.374745 
L 23.048521 212.23575 
L 25.029586 212.471861 
L 27.010651 213.086364 
L 28.991716 213.552867 
L 30.972781 214.137918 
L 32.953846 214.829403 
" clip-path="url(#p83f03560ee)" style="fill: none; stroke: #1f77b4; stroke-width: 1.5; stroke-linecap: square"/>
   </g>
  </g>
  <g id="axes_93">
   <g id="line2d_127">
    <path d="M 32.953846 208.920237 
L 34.934911 208.624976 
L 36.915976 208.883038 
L 38.897041 208.90462 
L 40.878107 209.116382 
L 42.859172 209.346221 
L 44.840237 209.924139 
L 46.821302 211.171714 
L 48.802367 212.243559 
L 50.783432 212.765585 
L 52.764497 213.350882 
L 54.745562 213.914166 
L 56.726627 214.118796 
L 58.707692 214.750454 
" clip-path="url(#p9efb8c4bf4)" style="fill: none; stroke: #1f77b4; stroke-width: 1.5; stroke-linecap: square"/>
   </g>
  </g>
  <g id="axes_94">
   <g id="line2d_128">
    <path d="M 58.707692 208.803842 
L 60.688757 208.932904 
L 62.669822 208.880209 
L 64.650888 208.947169 
L 66.631953 209.02827 
L 68.613018 209.354952 
L 70.594083 209.932009 
L 72.575148 210.97514 
L 74.556213 212.327182 
L 76.537278 212.790549 
L 78.518343 213.010796 
L 80.499408 213.639073 
L 82.480473 214.191965 
L 84.461538 214.545455 
" clip-path="url(#p4abb14e926)" style="fill: none; stroke: #1f77b4; stroke-width: 1.5; stroke-linecap: square"/>
   </g>
  </g>
  <g id="axes_95">
   <g id="line2d_129">
    <path d="M 84.461538 209.045733 
L 86.442604 208.880394 
L 88.423669 208.966845 
L 90.404734 208.930875 
L 92.385799 209.20271 
L 94.366864 209.276248 
L 96.347929 209.83529 
L 98.328994 210.479614 
L 100.310059 211.769677 
L 102.291124 212.976917 
L 104.272189 213.335387 
L 106.253254 213.687155 
L 108.23432 214.025458 
L 110.215385 214.717681 
" clip-path="url(#pc38b5d37ab)" style="fill: none; stroke: #1f77b4; stroke-width: 1.5; stroke-linecap: square"/>
   </g>
  </g>
  <g id="axes_96">
   <g id="line2d_130">
    <path d="M 110.215385 208.760924 
L 112.19645 208.765905 
L 114.177515 208.999617 
L 116.15858 209.034973 
L 118.139645 209.113984 
L 120.12071 209.136611 
L 122.101775 209.529022 
L 124.08284 210.311324 
L 126.063905 211.663181 
L 128.04497 212.624534 
L 130.026036 213.137644 
L 132.007101 213.862271 
L 133.988166 213.977498 
L 135.969231 214.513851 
" clip-path="url(#p1add689d23)" style="fill: none; stroke: #1f77b4; stroke-width: 1.5; stroke-linecap: square"/>
   </g>
  </g>
  <g id="axes_97">
   <g id="line2d_131">
    <path d="M 135.969231 209.167969 
L 137.950296 209.356489 
L 139.931361 209.235052 
L 141.912426 209.106913 
L 143.893491 209.581409 
L 145.874556 209.827973 
L 147.855621 210.353627 
L 149.836686 210.523147 
L 151.817751 211.645842 
L 153.798817 212.955519 
L 155.779882 213.085134 
L 157.760947 213.894921 
L 159.742012 214.304118 
L 161.723077 214.891321 
" clip-path="url(#pdb6fa73960)" style="fill: none; stroke: #1f77b4; stroke-width: 1.5; stroke-linecap: square"/>
   </g>
  </g>
  <g id="axes_98">
   <g id="line2d_132">
    <path d="M 161.723077 215.96667 
L 163.704142 216.13533 
L 165.685207 216.152608 
L 167.666272 216.592118 
L 169.647337 218.033071 
L 171.628402 219.308746 
L 173.609467 221.572458 
L 175.590533 222.745511 
L 177.571598 224.018296 
L 179.552663 223.709261 
L 181.533728 220.645108 
L 183.514793 217.084631 
L 185.495858 217.412296 
L 187.476923 219.786132 
" clip-path="url(#p09a3b9da5c)" style="fill: none; stroke: #1f77b4; stroke-width: 1.5; stroke-linecap: square"/>
   </g>
   <g id="line2d_133">
    <g clip-path="url(#p09a3b9da5c)">
     <use xlink:href="#ma94e9ed1dc" x="177.571598" y="224.018296" style="fill: #ff7f0e; stroke: #ff7f0e"/>
    </g>
   </g>
   <g id="line2d_134">
    <g clip-path="url(#p09a3b9da5c)">
     <use xlink:href="#mb54fff5fd8" x="187.476923" y="219.786132" style="fill: #2ca02c; stroke: #2ca02c"/>
    </g>
   </g>
  </g>
  <g id="axes_99">
   <g id="line2d_135">
    <path d="M 187.476923 208.940282 
L 189.457988 209.064118 
L 191.439053 208.978343 
L 193.420118 209.016895 
L 195.401183 208.892384 
L 197.382249 209.155672 
L 199.363314 209.428368 
L 201.344379 209.829141 
L 203.325444 210.504271 
L 205.306509 211.608642 
L 207.287574 212.266002 
L 209.268639 212.670957 
L 211.249704 213.541984 
L 213.230769 213.950013 
" clip-path="url(#p1c1b3d0b6e)" style="fill: none; stroke: #1f77b4; stroke-width: 1.5; stroke-linecap: square"/>
   </g>
  </g>
  <g id="axes_100">
   <g id="line2d_136">
    <path d="M 213.230769 208.838214 
L 215.211834 209.032575 
L 217.192899 208.897241 
L 219.173964 208.976006 
L 221.15503 208.968874 
L 223.136095 209.212855 
L 225.11716 209.346221 
L 227.098225 209.846296 
L 229.07929 210.624355 
L 231.060355 211.480749 
L 233.04142 212.453292 
L 235.022485 212.990075 
L 237.00355 213.190769 
L 238.984615 213.77994 
" clip-path="url(#p3ef405509a)" style="fill: none; stroke: #1f77b4; stroke-width: 1.5; stroke-linecap: square"/>
   </g>
  </g>
  <g id="axes_101">
   <g id="line2d_137">
    <path d="M 238.984615 208.713702 
L 240.96568 209.034604 
L 242.946746 208.77439 
L 244.927811 209.070512 
L 246.908876 208.954117 
L 248.889941 209.101625 
L 250.871006 209.3164 
L 252.852071 209.785916 
L 254.833136 210.349138 
L 256.814201 211.408501 
L 258.795266 212.30935 
L 260.776331 212.741113 
L 262.757396 213.206018 
L 264.738462 213.51616 
" clip-path="url(#p8bb1be10bb)" style="fill: none; stroke: #1f77b4; stroke-width: 1.5; stroke-linecap: square"/>
   </g>
  </g>
  <g id="axes_102">
   <g id="line2d_138">
    <path d="M 264.738462 208.642254 
L 266.719527 208.824625 
L 268.700592 208.746721 
L 270.681657 208.754099 
L 272.662722 208.87031 
L 274.643787 208.688492 
L 276.624852 209.125605 
L 278.605917 209.397071 
L 280.586982 209.932194 
L 282.568047 210.725871 
L 284.549112 211.866028 
L 286.530178 212.316298 
L 288.511243 212.407545 
L 290.492308 213.148774 
" clip-path="url(#pf03e5717ab)" style="fill: none; stroke: #1f77b4; stroke-width: 1.5; stroke-linecap: square"/>
   </g>
  </g>
  <g id="axes_103">
   <g id="line2d_139">
    <path d="M 290.492308 208.769532 
L 292.473373 208.92239 
L 294.454438 208.677056 
L 296.435503 209.0113 
L 298.416568 208.928784 
L 300.397633 208.817 
L 302.378698 208.776234 
L 304.359763 209.323778 
L 306.340828 209.491577 
L 308.321893 210.264348 
L 310.302959 211.433834 
L 312.284024 212.254319 
L 314.265089 212.840354 
L 316.246154 213.013748 
" clip-path="url(#pd5c54ba1bf)" style="fill: none; stroke: #1f77b4; stroke-width: 1.5; stroke-linecap: square"/>
   </g>
  </g>
  <g id="axes_104">
   <g id="line2d_140">
    <path d="M 316.246154 208.556736 
L 318.227219 208.730463 
L 320.208284 208.634398 
L 322.189349 208.818657 
L 324.170414 208.684977 
L 326.151479 208.72919 
L 328.132544 209.007661 
L 330.113609 209.104536 
L 332.094675 209.268309 
L 334.07574 209.954304 
L 336.056805 210.749558 
L 338.03787 211.993306 
L 340.018935 212.203954 
L 342 212.73312 
" clip-path="url(#p143087a492)" style="fill: none; stroke: #1f77b4; stroke-width: 1.5; stroke-linecap: square"/>
   </g>
  </g>
  <g id="axes_105">
   <g id="line2d_141">
    <path d="M 7.2 233.837671 
L 9.181065 233.648782 
L 11.16213 233.470456 
L 13.143195 233.433694 
L 15.12426 233.843574 
L 17.105325 234.343445 
L 19.086391 234.833789 
L 21.067456 236.297262 
L 23.048521 236.856162 
L 25.029586 237.425209 
L 27.010651 238.063434 
L 28.991716 238.309175 
L 30.972781 238.768556 
L 32.953846 239.138256 
" clip-path="url(#pffdc36aadb)" style="fill: none; stroke: #1f77b4; stroke-width: 1.5; stroke-linecap: square"/>
   </g>
  </g>
  <g id="axes_106">
   <g id="line2d_142">
    <path d="M 32.953846 238.509973 
L 34.934911 238.368824 
L 36.915976 238.251908 
L 38.897041 238.773734 
L 40.878107 240.038687 
L 42.859172 241.138777 
L 44.840237 242.703737 
L 46.821302 244.035795 
L 48.802367 244.441637 
L 50.783432 242.287643 
L 52.764497 240.085702 
L 54.745562 240.669662 
L 56.726627 242.396171 
L 58.707692 243.499989 
" clip-path="url(#p86316bab07)" style="fill: none; stroke: #1f77b4; stroke-width: 1.5; stroke-linecap: square"/>
   </g>
   <g id="line2d_143">
    <g clip-path="url(#p86316bab07)">
     <use xlink:href="#ma94e9ed1dc" x="48.802367" y="244.441637" style="fill: #ff7f0e; stroke: #ff7f0e"/>
    </g>
   </g>
   <g id="line2d_144">
    <g clip-path="url(#p86316bab07)">
     <use xlink:href="#mb54fff5fd8" x="58.707692" y="243.499989" style="fill: #2ca02c; stroke: #2ca02c"/>
    </g>
   </g>
  </g>
  <g id="axes_107">
   <g id="line2d_145">
    <path d="M 58.707692 236.727336 
L 60.688757 236.99234 
L 62.669822 237.057995 
L 64.650888 236.7845 
L 66.631953 237.386686 
L 68.613018 238.020457 
L 70.594083 238.820749 
L 72.575148 239.724183 
L 74.556213 240.621094 
L 76.537278 240.251705 
L 78.518343 239.432773 
L 80.499408 239.295352 
L 82.480473 240.222812 
L 84.461538 241.164252 
" clip-path="url(#pf2f3d079e1)" style="fill: none; stroke: #1f77b4; stroke-width: 1.5; stroke-linecap: square"/>
   </g>
   <g id="line2d_146">
    <g clip-path="url(#pf2f3d079e1)">
     <use xlink:href="#ma94e9ed1dc" x="74.556213" y="240.621094" style="fill: #ff7f0e; stroke: #ff7f0e"/>
    </g>
   </g>
   <g id="line2d_147">
    <g clip-path="url(#pf2f3d079e1)">
     <use xlink:href="#mb54fff5fd8" x="84.461538" y="241.164252" style="fill: #2ca02c; stroke: #2ca02c"/>
    </g>
   </g>
  </g>
  <g id="axes_108">
   <g id="line2d_148">
    <path d="M 84.461538 233.381294 
L 86.442604 233.625793 
L 88.423669 233.628899 
L 90.404734 233.424373 
L 92.385799 233.51975 
L 94.366864 233.839639 
L 96.347929 234.584113 
L 98.328994 235.539844 
L 100.310059 236.928652 
L 102.291124 237.100557 
L 104.272189 238.248491 
L 106.253254 237.892875 
L 108.23432 238.360747 
L 110.215385 239.035838 
" clip-path="url(#p07774de35b)" style="fill: none; stroke: #1f77b4; stroke-width: 1.5; stroke-linecap: square"/>
   </g>
  </g>
  <g id="axes_109">
   <g id="line2d_149">
    <path d="M 110.215385 233.379015 
L 112.19645 233.376426 
L 114.177515 233.431105 
L 116.15858 233.293477 
L 118.139645 233.850926 
L 120.12071 233.705739 
L 122.101775 234.367988 
L 124.08284 235.455548 
L 126.063905 236.89251 
L 128.04497 237.055095 
L 130.026036 237.462076 
L 132.007101 238.280179 
L 133.988166 238.32968 
L 135.969231 238.84436 
" clip-path="url(#pf87b4f3120)" style="fill: none; stroke: #1f77b4; stroke-width: 1.5; stroke-linecap: square"/>
   </g>
  </g>
  <g id="axes_110">
   <g id="line2d_150">
    <path d="M 135.969231 233.642983 
L 137.950296 233.458962 
L 139.931361 233.644847 
L 141.912426 233.552267 
L 143.893491 233.494896 
L 145.874556 233.960386 
L 147.855621 234.310618 
L 149.836686 235.192512 
L 151.817751 236.279243 
L 153.798817 237.038526 
L 155.779882 237.769124 
L 157.760947 238.17134 
L 159.742012 238.604728 
L 161.723077 238.921614 
" clip-path="url(#pead5e31601)" style="fill: none; stroke: #1f77b4; stroke-width: 1.5; stroke-linecap: square"/>
   </g>
  </g>
  <g id="axes_111">
   <g id="line2d_151">
    <path d="M 161.723077 233.869152 
L 163.704142 233.348259 
L 165.685207 233.572668 
L 167.666272 233.528241 
L 169.647337 233.526067 
L 171.628402 233.975609 
L 173.609467 234.227461 
L 175.590533 234.80645 
L 177.571598 235.690002 
L 179.552663 236.882465 
L 181.533728 237.42873 
L 183.514793 237.740128 
L 185.495858 238.243831 
L 187.476923 238.733968 
" clip-path="url(#pe6d9a17ea7)" style="fill: none; stroke: #1f77b4; stroke-width: 1.5; stroke-linecap: square"/>
   </g>
  </g>
  <g id="axes_112">
   <g id="line2d_152">
    <path d="M 187.476923 241.936687 
L 189.457988 241.814386 
L 191.439053 241.757326 
L 193.420118 242.098651 
L 195.401183 244.2106 
L 197.382249 246.043048 
L 199.363314 248.529668 
L 201.344379 250.926193 
L 203.325444 252.403129 
L 205.306509 252.394947 
L 207.287574 249.469969 
L 209.268639 243.859955 
L 211.249704 241.575479 
L 213.230769 244.96077 
" clip-path="url(#pbf52a4f0b8)" style="fill: none; stroke: #1f77b4; stroke-width: 1.5; stroke-linecap: square"/>
   </g>
   <g id="line2d_153">
    <g clip-path="url(#pbf52a4f0b8)">
     <use xlink:href="#ma94e9ed1dc" x="203.325444" y="252.403129" style="fill: #ff7f0e; stroke: #ff7f0e"/>
    </g>
   </g>
   <g id="line2d_154">
    <g clip-path="url(#pbf52a4f0b8)">
     <use xlink:href="#mb54fff5fd8" x="213.230769" y="244.96077" style="fill: #2ca02c; stroke: #2ca02c"/>
    </g>
   </g>
  </g>
  <g id="axes_113">
   <g id="line2d_155">
    <path d="M 213.230769 240.461719 
L 215.211834 239.9721 
L 217.192899 240.334965 
L 219.173964 240.307212 
L 221.15503 241.741792 
L 223.136095 243.706379 
L 225.11716 245.436823 
L 227.098225 247.814086 
L 229.07929 248.760705 
L 231.060355 249.117874 
L 233.04142 246.964916 
L 235.022485 242.168863 
L 237.00355 240.760689 
L 238.984615 242.99784 
" clip-path="url(#p343d66d740)" style="fill: none; stroke: #1f77b4; stroke-width: 1.5; stroke-linecap: square"/>
   </g>
   <g id="line2d_156">
    <g clip-path="url(#p343d66d740)">
     <use xlink:href="#ma94e9ed1dc" x="231.060355" y="249.117874" style="fill: #ff7f0e; stroke: #ff7f0e"/>
    </g>
   </g>
   <g id="line2d_157">
    <g clip-path="url(#p343d66d740)">
     <use xlink:href="#mb54fff5fd8" x="238.984615" y="242.99784" style="fill: #2ca02c; stroke: #2ca02c"/>
    </g>
   </g>
  </g>
  <g id="axes_114">
   <g id="line2d_158">
    <path d="M 238.984615 233.51685 
L 240.96568 233.281154 
L 242.946746 233.370006 
L 244.927811 233.380569 
L 246.908876 233.352297 
L 248.889941 233.545743 
L 250.871006 233.611916 
L 252.852071 234.339614 
L 254.833136 234.989333 
L 256.814201 235.864289 
L 258.795266 236.726301 
L 260.776331 236.918296 
L 262.757396 237.264385 
L 264.738462 237.985559 
" clip-path="url(#p10b25c113e)" style="fill: none; stroke: #1f77b4; stroke-width: 1.5; stroke-linecap: square"/>
   </g>
  </g>
  <g id="axes_115">
   <g id="line2d_159">
    <path d="M 264.738462 233.132549 
L 266.719527 233.366588 
L 268.700592 233.206799 
L 270.681657 233.296169 
L 272.662722 233.510015 
L 274.643787 233.508566 
L 276.624852 233.664937 
L 278.605917 234.349348 
L 280.586982 234.848805 
L 282.568047 235.40553 
L 284.549112 236.487601 
L 286.530178 236.829858 
L 288.511243 237.190238 
L 290.492308 237.930466 
" clip-path="url(#pa3eb7af6cf)" style="fill: none; stroke: #1f77b4; stroke-width: 1.5; stroke-linecap: square"/>
   </g>
  </g>
  <g id="axes_116">
   <g id="line2d_160">
    <path d="M 290.492308 233.440114 
L 292.473373 233.144147 
L 294.454438 233.306007 
L 296.435503 233.168587 
L 298.416568 233.418885 
L 300.397633 233.289127 
L 302.378698 233.642362 
L 304.359763 233.894213 
L 306.340828 234.413864 
L 308.321893 234.808521 
L 310.302959 235.917828 
L 312.284024 236.575418 
L 314.265089 237.110913 
L 316.246154 237.267077 
" clip-path="url(#p56af3a4729)" style="fill: none; stroke: #1f77b4; stroke-width: 1.5; stroke-linecap: square"/>
   </g>
  </g>
  <g id="axes_117">
   <g id="line2d_161">
    <path d="M 316.246154 233.35008 
L 318.227219 233.360801 
L 320.208284 233.376006 
L 322.189349 233.660801 
L 324.170414 233.537214 
L 326.151479 233.618501 
L 328.132544 233.503101 
L 330.113609 234.077565 
L 332.094675 234.066454 
L 334.07574 234.369962 
L 336.056805 235.648128 
L 338.03787 236.122787 
L 340.018935 236.761967 
L 342 237.175222 
" clip-path="url(#p5335a9e447)" style="fill: none; stroke: #1f77b4; stroke-width: 1.5; stroke-linecap: square"/>
   </g>
  </g>
  <g id="text_1">
   <!-- y-range = [-9.11, -3.00] -->
   <g transform="translate(73.9425 19.3575) scale(0.16 -0.16)">
    <defs>
     <path id="DejaVuSans-79" d="M 2059 -325 
Q 1816 -950 1584 -1140 
Q 1353 -1331 966 -1331 
L 506 -1331 
L 506 -850 
L 844 -850 
Q 1081 -850 1212 -737 
Q 1344 -625 1503 -206 
L 1606 56 
L 191 3500 
L 800 3500 
L 1894 763 
L 2988 3500 
L 3597 3500 
L 2059 -325 
z
" transform="scale(0.015625)"/>
     <path id="DejaVuSans-2d" d="M 313 2009 
L 1997 2009 
L 1997 1497 
L 313 1497 
L 313 2009 
z
" transform="scale(0.015625)"/>
     <path id="DejaVuSans-72" d="M 2631 2963 
Q 2534 3019 2420 3045 
Q 2306 3072 2169 3072 
Q 1681 3072 1420 2755 
Q 1159 2438 1159 1844 
L 1159 0 
L 581 0 
L 581 3500 
L 1159 3500 
L 1159 2956 
Q 1341 3275 1631 3429 
Q 1922 3584 2338 3584 
Q 2397 3584 2469 3576 
Q 2541 3569 2628 3553 
L 2631 2963 
z
" transform="scale(0.015625)"/>
     <path id="DejaVuSans-61" d="M 2194 1759 
Q 1497 1759 1228 1600 
Q 959 1441 959 1056 
Q 959 750 1161 570 
Q 1363 391 1709 391 
Q 2188 391 2477 730 
Q 2766 1069 2766 1631 
L 2766 1759 
L 2194 1759 
z
M 3341 1997 
L 3341 0 
L 2766 0 
L 2766 531 
Q 2569 213 2275 61 
Q 1981 -91 1556 -91 
Q 1019 -91 701 211 
Q 384 513 384 1019 
Q 384 1609 779 1909 
Q 1175 2209 1959 2209 
L 2766 2209 
L 2766 2266 
Q 2766 2663 2505 2880 
Q 2244 3097 1772 3097 
Q 1472 3097 1187 3025 
Q 903 2953 641 2809 
L 641 3341 
Q 956 3463 1253 3523 
Q 1550 3584 1831 3584 
Q 2591 3584 2966 3190 
Q 3341 2797 3341 1997 
z
" transform="scale(0.015625)"/>
     <path id="DejaVuSans-6e" d="M 3513 2113 
L 3513 0 
L 2938 0 
L 2938 2094 
Q 2938 2591 2744 2837 
Q 2550 3084 2163 3084 
Q 1697 3084 1428 2787 
Q 1159 2491 1159 1978 
L 1159 0 
L 581 0 
L 581 3500 
L 1159 3500 
L 1159 2956 
Q 1366 3272 1645 3428 
Q 1925 3584 2291 3584 
Q 2894 3584 3203 3211 
Q 3513 2838 3513 2113 
z
" transform="scale(0.015625)"/>
     <path id="DejaVuSans-67" d="M 2906 1791 
Q 2906 2416 2648 2759 
Q 2391 3103 1925 3103 
Q 1463 3103 1205 2759 
Q 947 2416 947 1791 
Q 947 1169 1205 825 
Q 1463 481 1925 481 
Q 2391 481 2648 825 
Q 2906 1169 2906 1791 
z
M 3481 434 
Q 3481 -459 3084 -895 
Q 2688 -1331 1869 -1331 
Q 1566 -1331 1297 -1286 
Q 1028 -1241 775 -1147 
L 775 -588 
Q 1028 -725 1275 -790 
Q 1522 -856 1778 -856 
Q 2344 -856 2625 -561 
Q 2906 -266 2906 331 
L 2906 616 
Q 2728 306 2450 153 
Q 2172 0 1784 0 
Q 1141 0 747 490 
Q 353 981 353 1791 
Q 353 2603 747 3093 
Q 1141 3584 1784 3584 
Q 2172 3584 2450 3431 
Q 2728 3278 2906 2969 
L 2906 3500 
L 3481 3500 
L 3481 434 
z
" transform="scale(0.015625)"/>
     <path id="DejaVuSans-65" d="M 3597 1894 
L 3597 1613 
L 953 1613 
Q 991 1019 1311 708 
Q 1631 397 2203 397 
Q 2534 397 2845 478 
Q 3156 559 3463 722 
L 3463 178 
Q 3153 47 2828 -22 
Q 2503 -91 2169 -91 
Q 1331 -91 842 396 
Q 353 884 353 1716 
Q 353 2575 817 3079 
Q 1281 3584 2069 3584 
Q 2775 3584 3186 3129 
Q 3597 2675 3597 1894 
z
M 3022 2063 
Q 3016 2534 2758 2815 
Q 2500 3097 2075 3097 
Q 1594 3097 1305 2825 
Q 1016 2553 972 2059 
L 3022 2063 
z
" transform="scale(0.015625)"/>
     <path id="DejaVuSans-20" transform="scale(0.015625)"/>
     <path id="DejaVuSans-3d" d="M 678 2906 
L 4684 2906 
L 4684 2381 
L 678 2381 
L 678 2906 
z
M 678 1631 
L 4684 1631 
L 4684 1100 
L 678 1100 
L 678 1631 
z
" transform="scale(0.015625)"/>
     <path id="DejaVuSans-5b" d="M 550 4863 
L 1875 4863 
L 1875 4416 
L 1125 4416 
L 1125 -397 
L 1875 -397 
L 1875 -844 
L 550 -844 
L 550 4863 
z
" transform="scale(0.015625)"/>
     <path id="DejaVuSans-39" d="M 703 97 
L 703 672 
Q 941 559 1184 500 
Q 1428 441 1663 441 
Q 2288 441 2617 861 
Q 2947 1281 2994 2138 
Q 2813 1869 2534 1725 
Q 2256 1581 1919 1581 
Q 1219 1581 811 2004 
Q 403 2428 403 3163 
Q 403 3881 828 4315 
Q 1253 4750 1959 4750 
Q 2769 4750 3195 4129 
Q 3622 3509 3622 2328 
Q 3622 1225 3098 567 
Q 2575 -91 1691 -91 
Q 1453 -91 1209 -44 
Q 966 3 703 97 
z
M 1959 2075 
Q 2384 2075 2632 2365 
Q 2881 2656 2881 3163 
Q 2881 3666 2632 3958 
Q 2384 4250 1959 4250 
Q 1534 4250 1286 3958 
Q 1038 3666 1038 3163 
Q 1038 2656 1286 2365 
Q 1534 2075 1959 2075 
z
" transform="scale(0.015625)"/>
     <path id="DejaVuSans-2e" d="M 684 794 
L 1344 794 
L 1344 0 
L 684 0 
L 684 794 
z
" transform="scale(0.015625)"/>
     <path id="DejaVuSans-31" d="M 794 531 
L 1825 531 
L 1825 4091 
L 703 3866 
L 703 4441 
L 1819 4666 
L 2450 4666 
L 2450 531 
L 3481 531 
L 3481 0 
L 794 0 
L 794 531 
z
" transform="scale(0.015625)"/>
     <path id="DejaVuSans-2c" d="M 750 794 
L 1409 794 
L 1409 256 
L 897 -744 
L 494 -744 
L 750 256 
L 750 794 
z
" transform="scale(0.015625)"/>
     <path id="DejaVuSans-33" d="M 2597 2516 
Q 3050 2419 3304 2112 
Q 3559 1806 3559 1356 
Q 3559 666 3084 287 
Q 2609 -91 1734 -91 
Q 1441 -91 1130 -33 
Q 819 25 488 141 
L 488 750 
Q 750 597 1062 519 
Q 1375 441 1716 441 
Q 2309 441 2620 675 
Q 2931 909 2931 1356 
Q 2931 1769 2642 2001 
Q 2353 2234 1838 2234 
L 1294 2234 
L 1294 2753 
L 1863 2753 
Q 2328 2753 2575 2939 
Q 2822 3125 2822 3475 
Q 2822 3834 2567 4026 
Q 2313 4219 1838 4219 
Q 1578 4219 1281 4162 
Q 984 4106 628 3988 
L 628 4550 
Q 988 4650 1302 4700 
Q 1616 4750 1894 4750 
Q 2613 4750 3031 4423 
Q 3450 4097 3450 3541 
Q 3450 3153 3228 2886 
Q 3006 2619 2597 2516 
z
" transform="scale(0.015625)"/>
     <path id="DejaVuSans-30" d="M 2034 4250 
Q 1547 4250 1301 3770 
Q 1056 3291 1056 2328 
Q 1056 1369 1301 889 
Q 1547 409 2034 409 
Q 2525 409 2770 889 
Q 3016 1369 3016 2328 
Q 3016 3291 2770 3770 
Q 2525 4250 2034 4250 
z
M 2034 4750 
Q 2819 4750 3233 4129 
Q 3647 3509 3647 2328 
Q 3647 1150 3233 529 
Q 2819 -91 2034 -91 
Q 1250 -91 836 529 
Q 422 1150 422 2328 
Q 422 3509 836 4129 
Q 1250 4750 2034 4750 
z
" transform="scale(0.015625)"/>
     <path id="DejaVuSans-5d" d="M 1947 4863 
L 1947 -844 
L 622 -844 
L 622 -397 
L 1369 -397 
L 1369 4416 
L 622 4416 
L 622 4863 
L 1947 4863 
z
" transform="scale(0.015625)"/>
    </defs>
    <use xlink:href="#DejaVuSans-79"/>
    <use xlink:href="#DejaVuSans-2d" x="57.429688"/>
    <use xlink:href="#DejaVuSans-72" x="93.513672"/>
    <use xlink:href="#DejaVuSans-61" x="134.626953"/>
    <use xlink:href="#DejaVuSans-6e" x="195.90625"/>
    <use xlink:href="#DejaVuSans-67" x="259.285156"/>
    <use xlink:href="#DejaVuSans-65" x="322.761719"/>
    <use xlink:href="#DejaVuSans-20" x="384.285156"/>
    <use xlink:href="#DejaVuSans-3d" x="416.072266"/>
    <use xlink:href="#DejaVuSans-20" x="499.861328"/>
    <use xlink:href="#DejaVuSans-5b" x="531.648438"/>
    <use xlink:href="#DejaVuSans-2d" x="570.662109"/>
    <use xlink:href="#DejaVuSans-39" x="606.746094"/>
    <use xlink:href="#DejaVuSans-2e" x="670.369141"/>
    <use xlink:href="#DejaVuSans-31" x="702.15625"/>
    <use xlink:href="#DejaVuSans-31" x="765.779297"/>
    <use xlink:href="#DejaVuSans-2c" x="829.402344"/>
    <use xlink:href="#DejaVuSans-20" x="861.189453"/>
    <use xlink:href="#DejaVuSans-2d" x="892.976562"/>
    <use xlink:href="#DejaVuSans-33" x="929.060547"/>
    <use xlink:href="#DejaVuSans-2e" x="992.683594"/>
    <use xlink:href="#DejaVuSans-30" x="1024.470703"/>
    <use xlink:href="#DejaVuSans-30" x="1088.09375"/>
    <use xlink:href="#DejaVuSans-5d" x="1151.716797"/>
   </g>
  </g>
 </g>
 <defs>
  <clipPath id="pe170bfd9fe">
   <rect x="7.2" y="36" width="25.753846" height="24.64"/>
  </clipPath>
  <clipPath id="p226b5e12e9">
   <rect x="32.953846" y="36" width="25.753846" height="24.64"/>
  </clipPath>
  <clipPath id="pcf33c1f7c4">
   <rect x="58.707692" y="36" width="25.753846" height="24.64"/>
  </clipPath>
  <clipPath id="pf633aaa9cc">
   <rect x="84.461538" y="36" width="25.753846" height="24.64"/>
  </clipPath>
  <clipPath id="p7bb59ef286">
   <rect x="110.215385" y="36" width="25.753846" height="24.64"/>
  </clipPath>
  <clipPath id="p370dfc376c">
   <rect x="135.969231" y="36" width="25.753846" height="24.64"/>
  </clipPath>
  <clipPath id="p218cf7a10c">
   <rect x="161.723077" y="36" width="25.753846" height="24.64"/>
  </clipPath>
  <clipPath id="pd8750c777b">
   <rect x="187.476923" y="36" width="25.753846" height="24.64"/>
  </clipPath>
  <clipPath id="p98e6a4d6cb">
   <rect x="213.230769" y="36" width="25.753846" height="24.64"/>
  </clipPath>
  <clipPath id="pee5bb2c3cb">
   <rect x="238.984615" y="36" width="25.753846" height="24.64"/>
  </clipPath>
  <clipPath id="p9eaf56cb5a">
   <rect x="264.738462" y="36" width="25.753846" height="24.64"/>
  </clipPath>
  <clipPath id="pb9618d0a9e">
   <rect x="290.492308" y="36" width="25.753846" height="24.64"/>
  </clipPath>
  <clipPath id="pf461df554b">
   <rect x="316.246154" y="36" width="25.753846" height="24.64"/>
  </clipPath>
  <clipPath id="pe7cb0a69d9">
   <rect x="7.2" y="60.64" width="25.753846" height="24.64"/>
  </clipPath>
  <clipPath id="p17f9330a07">
   <rect x="32.953846" y="60.64" width="25.753846" height="24.64"/>
  </clipPath>
  <clipPath id="pe1caf141cf">
   <rect x="58.707692" y="60.64" width="25.753846" height="24.64"/>
  </clipPath>
  <clipPath id="pf116ab7e78">
   <rect x="84.461538" y="60.64" width="25.753846" height="24.64"/>
  </clipPath>
  <clipPath id="p3794763797">
   <rect x="110.215385" y="60.64" width="25.753846" height="24.64"/>
  </clipPath>
  <clipPath id="p1c181bea8a">
   <rect x="135.969231" y="60.64" width="25.753846" height="24.64"/>
  </clipPath>
  <clipPath id="p5c8b7e898e">
   <rect x="161.723077" y="60.64" width="25.753846" height="24.64"/>
  </clipPath>
  <clipPath id="pcdcf86a154">
   <rect x="187.476923" y="60.64" width="25.753846" height="24.64"/>
  </clipPath>
  <clipPath id="p99d913afb4">
   <rect x="213.230769" y="60.64" width="25.753846" height="24.64"/>
  </clipPath>
  <clipPath id="p6bcca7461f">
   <rect x="238.984615" y="60.64" width="25.753846" height="24.64"/>
  </clipPath>
  <clipPath id="p59dd99e3b5">
   <rect x="264.738462" y="60.64" width="25.753846" height="24.64"/>
  </clipPath>
  <clipPath id="p90b6ba0ce0">
   <rect x="290.492308" y="60.64" width="25.753846" height="24.64"/>
  </clipPath>
  <clipPath id="p57a1ea13a0">
   <rect x="316.246154" y="60.64" width="25.753846" height="24.64"/>
  </clipPath>
  <clipPath id="pf90180d69f">
   <rect x="7.2" y="85.28" width="25.753846" height="24.64"/>
  </clipPath>
  <clipPath id="p43b872e38b">
   <rect x="32.953846" y="85.28" width="25.753846" height="24.64"/>
  </clipPath>
  <clipPath id="p457e45e83f">
   <rect x="58.707692" y="85.28" width="25.753846" height="24.64"/>
  </clipPath>
  <clipPath id="pc18bf8a74d">
   <rect x="84.461538" y="85.28" width="25.753846" height="24.64"/>
  </clipPath>
  <clipPath id="p126a479fb1">
   <rect x="110.215385" y="85.28" width="25.753846" height="24.64"/>
  </clipPath>
  <clipPath id="pe7c0911e3e">
   <rect x="135.969231" y="85.28" width="25.753846" height="24.64"/>
  </clipPath>
  <clipPath id="p9c918bbe74">
   <rect x="161.723077" y="85.28" width="25.753846" height="24.64"/>
  </clipPath>
  <clipPath id="p271d1c2530">
   <rect x="187.476923" y="85.28" width="25.753846" height="24.64"/>
  </clipPath>
  <clipPath id="pcdf2d48302">
   <rect x="213.230769" y="85.28" width="25.753846" height="24.64"/>
  </clipPath>
  <clipPath id="p71f756dc39">
   <rect x="238.984615" y="85.28" width="25.753846" height="24.64"/>
  </clipPath>
  <clipPath id="pfb22ea2092">
   <rect x="264.738462" y="85.28" width="25.753846" height="24.64"/>
  </clipPath>
  <clipPath id="pc6f7778977">
   <rect x="290.492308" y="85.28" width="25.753846" height="24.64"/>
  </clipPath>
  <clipPath id="p95ba505984">
   <rect x="316.246154" y="85.28" width="25.753846" height="24.64"/>
  </clipPath>
  <clipPath id="pa173b98598">
   <rect x="7.2" y="109.92" width="25.753846" height="24.64"/>
  </clipPath>
  <clipPath id="p68ce799686">
   <rect x="32.953846" y="109.92" width="25.753846" height="24.64"/>
  </clipPath>
  <clipPath id="p9af73a553e">
   <rect x="58.707692" y="109.92" width="25.753846" height="24.64"/>
  </clipPath>
  <clipPath id="pa195833bb6">
   <rect x="84.461538" y="109.92" width="25.753846" height="24.64"/>
  </clipPath>
  <clipPath id="p3e1cfb4bc6">
   <rect x="110.215385" y="109.92" width="25.753846" height="24.64"/>
  </clipPath>
  <clipPath id="pe9da88ceb9">
   <rect x="135.969231" y="109.92" width="25.753846" height="24.64"/>
  </clipPath>
  <clipPath id="p6e4282ff84">
   <rect x="161.723077" y="109.92" width="25.753846" height="24.64"/>
  </clipPath>
  <clipPath id="pd94393b613">
   <rect x="187.476923" y="109.92" width="25.753846" height="24.64"/>
  </clipPath>
  <clipPath id="pd0bb22a2cf">
   <rect x="213.230769" y="109.92" width="25.753846" height="24.64"/>
  </clipPath>
  <clipPath id="p4acb72dc6a">
   <rect x="238.984615" y="109.92" width="25.753846" height="24.64"/>
  </clipPath>
  <clipPath id="p0555255de4">
   <rect x="264.738462" y="109.92" width="25.753846" height="24.64"/>
  </clipPath>
  <clipPath id="pf36d8b8016">
   <rect x="290.492308" y="109.92" width="25.753846" height="24.64"/>
  </clipPath>
  <clipPath id="pbfae0c8e6b">
   <rect x="316.246154" y="109.92" width="25.753846" height="24.64"/>
  </clipPath>
  <clipPath id="p9834b5d8de">
   <rect x="7.2" y="134.56" width="25.753846" height="24.64"/>
  </clipPath>
  <clipPath id="pb529f478be">
   <rect x="32.953846" y="134.56" width="25.753846" height="24.64"/>
  </clipPath>
  <clipPath id="p1524313ae5">
   <rect x="58.707692" y="134.56" width="25.753846" height="24.64"/>
  </clipPath>
  <clipPath id="pd46bd80365">
   <rect x="84.461538" y="134.56" width="25.753846" height="24.64"/>
  </clipPath>
  <clipPath id="pc535957a23">
   <rect x="110.215385" y="134.56" width="25.753846" height="24.64"/>
  </clipPath>
  <clipPath id="p35b2eeb9fb">
   <rect x="135.969231" y="134.56" width="25.753846" height="24.64"/>
  </clipPath>
  <clipPath id="pb21cb03437">
   <rect x="161.723077" y="134.56" width="25.753846" height="24.64"/>
  </clipPath>
  <clipPath id="pf38b48c882">
   <rect x="187.476923" y="134.56" width="25.753846" height="24.64"/>
  </clipPath>
  <clipPath id="pcff672150a">
   <rect x="213.230769" y="134.56" width="25.753846" height="24.64"/>
  </clipPath>
  <clipPath id="pe8e118499a">
   <rect x="238.984615" y="134.56" width="25.753846" height="24.64"/>
  </clipPath>
  <clipPath id="p64ca7d4ce0">
   <rect x="264.738462" y="134.56" width="25.753846" height="24.64"/>
  </clipPath>
  <clipPath id="p89ae057138">
   <rect x="290.492308" y="134.56" width="25.753846" height="24.64"/>
  </clipPath>
  <clipPath id="p4f2ede5086">
   <rect x="316.246154" y="134.56" width="25.753846" height="24.64"/>
  </clipPath>
  <clipPath id="p57a8e03f4e">
   <rect x="7.2" y="159.2" width="25.753846" height="24.64"/>
  </clipPath>
  <clipPath id="p19ed9b2b8d">
   <rect x="32.953846" y="159.2" width="25.753846" height="24.64"/>
  </clipPath>
  <clipPath id="p339054b120">
   <rect x="58.707692" y="159.2" width="25.753846" height="24.64"/>
  </clipPath>
  <clipPath id="pcdc0f719e7">
   <rect x="84.461538" y="159.2" width="25.753846" height="24.64"/>
  </clipPath>
  <clipPath id="pc5d7dbc977">
   <rect x="110.215385" y="159.2" width="25.753846" height="24.64"/>
  </clipPath>
  <clipPath id="p3e93caad13">
   <rect x="135.969231" y="159.2" width="25.753846" height="24.64"/>
  </clipPath>
  <clipPath id="p5476cc6bda">
   <rect x="161.723077" y="159.2" width="25.753846" height="24.64"/>
  </clipPath>
  <clipPath id="p52275b37b2">
   <rect x="187.476923" y="159.2" width="25.753846" height="24.64"/>
  </clipPath>
  <clipPath id="paec5349302">
   <rect x="213.230769" y="159.2" width="25.753846" height="24.64"/>
  </clipPath>
  <clipPath id="p2ea07a82d1">
   <rect x="238.984615" y="159.2" width="25.753846" height="24.64"/>
  </clipPath>
  <clipPath id="p77e61bf179">
   <rect x="264.738462" y="159.2" width="25.753846" height="24.64"/>
  </clipPath>
  <clipPath id="p1c7a55811f">
   <rect x="290.492308" y="159.2" width="25.753846" height="24.64"/>
  </clipPath>
  <clipPath id="pb115f0e9de">
   <rect x="316.246154" y="159.2" width="25.753846" height="24.64"/>
  </clipPath>
  <clipPath id="p1fd6025f43">
   <rect x="7.2" y="183.84" width="25.753846" height="24.64"/>
  </clipPath>
  <clipPath id="peeeffa93d6">
   <rect x="32.953846" y="183.84" width="25.753846" height="24.64"/>
  </clipPath>
  <clipPath id="p7bea7dfa6a">
   <rect x="58.707692" y="183.84" width="25.753846" height="24.64"/>
  </clipPath>
  <clipPath id="p9f6605a4f6">
   <rect x="84.461538" y="183.84" width="25.753846" height="24.64"/>
  </clipPath>
  <clipPath id="p0e4f21e239">
   <rect x="110.215385" y="183.84" width="25.753846" height="24.64"/>
  </clipPath>
  <clipPath id="pd8ff4cc21c">
   <rect x="135.969231" y="183.84" width="25.753846" height="24.64"/>
  </clipPath>
  <clipPath id="pab821153a2">
   <rect x="161.723077" y="183.84" width="25.753846" height="24.64"/>
  </clipPath>
  <clipPath id="pf1885e2b21">
   <rect x="187.476923" y="183.84" width="25.753846" height="24.64"/>
  </clipPath>
  <clipPath id="p0048a8d5c6">
   <rect x="213.230769" y="183.84" width="25.753846" height="24.64"/>
  </clipPath>
  <clipPath id="p1a97a47cbc">
   <rect x="238.984615" y="183.84" width="25.753846" height="24.64"/>
  </clipPath>
  <clipPath id="p55965b3f04">
   <rect x="264.738462" y="183.84" width="25.753846" height="24.64"/>
  </clipPath>
  <clipPath id="pb1f939f92e">
   <rect x="290.492308" y="183.84" width="25.753846" height="24.64"/>
  </clipPath>
  <clipPath id="pec992d1ca9">
   <rect x="316.246154" y="183.84" width="25.753846" height="24.64"/>
  </clipPath>
  <clipPath id="p83f03560ee">
   <rect x="7.2" y="208.48" width="25.753846" height="24.64"/>
  </clipPath>
  <clipPath id="p9efb8c4bf4">
   <rect x="32.953846" y="208.48" width="25.753846" height="24.64"/>
  </clipPath>
  <clipPath id="p4abb14e926">
   <rect x="58.707692" y="208.48" width="25.753846" height="24.64"/>
  </clipPath>
  <clipPath id="pc38b5d37ab">
   <rect x="84.461538" y="208.48" width="25.753846" height="24.64"/>
  </clipPath>
  <clipPath id="p1add689d23">
   <rect x="110.215385" y="208.48" width="25.753846" height="24.64"/>
  </clipPath>
  <clipPath id="pdb6fa73960">
   <rect x="135.969231" y="208.48" width="25.753846" height="24.64"/>
  </clipPath>
  <clipPath id="p09a3b9da5c">
   <rect x="161.723077" y="208.48" width="25.753846" height="24.64"/>
  </clipPath>
  <clipPath id="p1c1b3d0b6e">
   <rect x="187.476923" y="208.48" width="25.753846" height="24.64"/>
  </clipPath>
  <clipPath id="p3ef405509a">
   <rect x="213.230769" y="208.48" width="25.753846" height="24.64"/>
  </clipPath>
  <clipPath id="p8bb1be10bb">
   <rect x="238.984615" y="208.48" width="25.753846" height="24.64"/>
  </clipPath>
  <clipPath id="pf03e5717ab">
   <rect x="264.738462" y="208.48" width="25.753846" height="24.64"/>
  </clipPath>
  <clipPath id="pd5c54ba1bf">
   <rect x="290.492308" y="208.48" width="25.753846" height="24.64"/>
  </clipPath>
  <clipPath id="p143087a492">
   <rect x="316.246154" y="208.48" width="25.753846" height="24.64"/>
  </clipPath>
  <clipPath id="pffdc36aadb">
   <rect x="7.2" y="233.12" width="25.753846" height="24.64"/>
  </clipPath>
  <clipPath id="p86316bab07">
   <rect x="32.953846" y="233.12" width="25.753846" height="24.64"/>
  </clipPath>
  <clipPath id="pf2f3d079e1">
   <rect x="58.707692" y="233.12" width="25.753846" height="24.64"/>
  </clipPath>
  <clipPath id="p07774de35b">
   <rect x="84.461538" y="233.12" width="25.753846" height="24.64"/>
  </clipPath>
  <clipPath id="pf87b4f3120">
   <rect x="110.215385" y="233.12" width="25.753846" height="24.64"/>
  </clipPath>
  <clipPath id="pead5e31601">
   <rect x="135.969231" y="233.12" width="25.753846" height="24.64"/>
  </clipPath>
  <clipPath id="pe6d9a17ea7">
   <rect x="161.723077" y="233.12" width="25.753846" height="24.64"/>
  </clipPath>
  <clipPath id="pbf52a4f0b8">
   <rect x="187.476923" y="233.12" width="25.753846" height="24.64"/>
  </clipPath>
  <clipPath id="p343d66d740">
   <rect x="213.230769" y="233.12" width="25.753846" height="24.64"/>
  </clipPath>
  <clipPath id="p10b25c113e">
   <rect x="238.984615" y="233.12" width="25.753846" height="24.64"/>
  </clipPath>
  <clipPath id="pa3eb7af6cf">
   <rect x="264.738462" y="233.12" width="25.753846" height="24.64"/>
  </clipPath>
  <clipPath id="p56af3a4729">
   <rect x="290.492308" y="233.12" width="25.753846" height="24.64"/>
  </clipPath>
  <clipPath id="p5335a9e447">
   <rect x="316.246154" y="233.12" width="25.753846" height="24.64"/>
  </clipPath>
 </defs>
</svg>
